<?xml version="1.0" encoding="UTF-8" standalone="no"?>
<svg
   version="1.1"
   width="50"
   height="50"
   viewBox="0 0 256 256"
   id="svg1"
   xmlns="http://www.w3.org/2000/svg"
   xmlns:svg="http://www.w3.org/2000/svg">
  <defs
     id="defs1" />
  <path
     d="M 126.48468,2.0107867 C 114.07033,2.1392252 101.5061,4.151226 89.091685,8.175173 22.97434,29.664937 -13.305622,100.855 8.1841415,166.99377 29.673905,233.11111 100.86396,269.39108 167.00273,247.90136 c 65.79626,-21.38269 101.9264,-91.97351 81.12163,-157.812561 -0.0428,-0.342466 -0.10704,-0.684932 -0.21402,-1.005973 C 231.79301,39.489489 187.72198,6.6983505 138.79214,2.460376 134.72535,2.11791 130.61576,1.9466771 126.4848,2.0108964 Z M 98.937607,16.73682 122.71757,31.548499 V 77.117888 L 81.643078,106.95522 c -0.107013,-0.0642 -0.214027,-0.0856 -0.342465,-0.12844 L 37.850237,92.849895 31.172152,65.923528 C 45.020597,44.30538 66.146469,27.160661 92.494974,18.599013 c 2.140439,-0.706356 4.280824,-1.305644 6.442633,-1.862137 z m 58.197783,0 c 27.5685,7.21321 52.01201,24.550532 67.78682,49.165283 l -6.7423,27.204615 -43.72862,13.848442 -40.77487,-29.623299 V 31.37721 Z m -122.517155,86.57966 43.343362,13.93408 c 0.107013,0.0428 0.214028,0.0857 0.342467,0.10705 l 15.603622,48.09504 -27.226039,37.47859 -27.632725,-1.94778 C 30.209029,190.19574 23.167053,177.65295 18.607981,163.59042 14.048911,149.5279 12.357952,135.2514 13.149951,121.3601 Z m 187.071975,0.14986 21.25431,17.89387 c 1.73376,29.21661 -7.89813,57.57707 -25.96318,79.62333 l -27.86819,1.9692 -26.90499,-37.56423 15.58219,-48.00945 z m -118.89983,68.40753 h 50.57793 l 26.96922,37.64983 -10.42378,25.68494 c -2.05479,0.81337 -4.15238,1.56252 -6.31419,2.26882 -26.34846,8.56165 -53.51028,7.1062 -77.418726,-2.24744 L 75.650035,209.22403 Z"
     id="path1"
     style="stroke-width:5.47946" />
</svg>
