<svg version="1.1" xmlns="http://www.w3.org/2000/svg" xmlns:xlink="http://www.w3.org/1999/xlink" width="50px" height="50px" viewBox="0,0,256,256"><g transform="scale(5.12,5.12)"><path d="M49,50h-15.5c-0.44531,0 -0.83984,-0.29687 -0.96094,-0.72656c-2.47656,-8.65625 -5.41016,-10.47266 -7.4375,-10.47266c-4.23828,0 -6.61328,7.30859 -7.43359,10.45313c-0.11719,0.4375 -0.51172,0.74609 -0.96875,0.74609h-15.69922c-0.30078,0 -0.58203,-0.13281 -0.77344,-0.36328c-0.1875,-0.23047 -0.26563,-0.53516 -0.20703,-0.82812c2.86719,-14.67578 9.16797,-39.50781 14.58203,-39.50781c1.27344,0 2.51172,1.07422 3.82031,3.34375c3.60938,-12.64453 5.66797,-12.64453 6.57813,-12.64453c2.78125,0 5.91406,7.93359 9.32031,23.60156c2.55469,-7 4.07813,-7 4.77734,-7c5.10547,0 10.30859,28.92969 10.88672,32.22656c0.05078,0.29297 -0.02734,0.58984 -0.21875,0.81641c-0.19141,0.22266 -0.46875,0.35547 -0.76562,0.35547z"></path></g></svg>