<svg
   xmlns="http://www.w3.org/2000/svg" 
   width="16px"
   height="16px"
   viewBox="0,0,256,256"
   fill="currentColor">
  <path
     d="M 61.44 0 C 55.840017 0 51.2 4.6400168 51.2 10.24 L 51.2 20.48 L 20.48 20.48 C 14.539999 20.48 10.24 24.779999 10.24 30.72 L 10.24 66.56 L 245.76 66.56 L 245.76 30.72 C 245.76 24.779999 241.45999 20.48 235.52 20.48 L 204.8 20.48 L 204.8 10.24 C 204.8 4.6400168 200.15997 0 194.56 0 L 184.32 0 C 178.72003 0 174.08 4.6400168 174.08 10.24 L 174.08 20.48 L 81.92 20.48 L 81.92 10.24 C 81.92 4.6400168 77.279983 0 71.68 0 L 61.44 0 z M 61.44 10.24 L 71.68 10.24 L 71.68 40.96 L 61.44 40.96 L 61.44 10.24 z M 184.32 10.24 L 194.56 10.24 L 194.56 40.96 L 184.32 40.96 L 184.32 10.24 z M 10.24 76.8 L 10.24 235.52 C 10.24 241.43997 14.539999 245.76 20.48 245.76 L 235.52 245.76 C 241.43997 245.76 245.76 241.43997 245.76 235.52 L 245.76 76.8 L 10.24 76.8 z M 19.99 86.79 L 236.01 86.79 L 236.01 236.01 L 19.99 236.01 L 19.99 86.79 z M 75.59 122.47 C 64.509835 122.02679 55.16838 125.53936 47.56 133 C 39.988554 140.42371 36.2 149.70597 36.2 160.86 C 36.2 170.79521 39.114447 179.39096 44.95 186.63 C 52.336776 195.7896 62.792199 200.37 76.31 200.37 C 89.790867 200.37 100.22322 195.56281 107.61 185.96 C 113.18702 178.72096 115.98 170.33894 115.98 160.81 C 115.98 149.65597 112.22758 140.36371 104.73 132.94 C 97.269356 125.51629 87.556578 122.02679 75.59 122.47 z M 123.79 123.52 L 123.79 125.57 C 126.0799 125.86547 127.57826 126.49972 128.28 127.46 C 129.01868 128.42028 129.39 130.85501 129.39 134.77 L 129.39 187.4 C 129.39 191.35193 129.06788 193.73745 128.44 194.55 C 127.51665 195.73188 125.9691 196.4284 123.79 196.65 L 123.79 198.65 L 150.55 198.65 L 150.55 196.65 C 148.2601 196.39146 146.74868 195.79028 146.01 194.83 C 145.27132 193.83279 144.9 191.35193 144.9 187.4 L 144.9 178.09 L 148.22 174.83 L 158.47 189.84 C 160.02122 192.1299 160.8 193.70052 160.8 194.55 C 160.8 195.06707 160.52401 195.54679 159.97 195.99 C 159.45293 196.43321 158.60188 196.65 157.42 196.65 L 157.42 198.65 L 184.18 198.65 L 184.18 196.65 C 182.25944 196.50226 180.66575 195.80575 179.41 194.55 C 178.48665 193.66359 175.57221 189.59904 170.66 182.36 L 158.47 164.52 L 164.12 158.98 C 168.95834 154.25246 172.20798 151.42335 173.87 150.5 C 175.53202 149.53972 177.47397 149.0108 179.69 148.9 L 179.69 146.85 L 156.48 146.85 L 156.48 148.9 C 158.84377 149.19547 160.42745 149.67519 161.24 150.34 C 162.05255 151.00481 162.46 151.83279 162.46 152.83 C 162.46 153.82721 162.14788 154.85892 161.52 155.93 C 160.92906 157.00108 159.39457 158.7393 156.92 161.14 L 144.9 172.94 L 144.9 123.52 L 123.79 123.52 z M 76.26 126.02 C 79.990322 126.02 83.276091 127.02864 86.12 129.06 C 89.000843 131.09136 91.363306 134.59086 93.21 139.54 C 95.056694 144.45221 95.98 151.87479 95.98 161.81 C 95.98 170.15706 95.06976 176.93232 93.26 182.14 C 91.45024 187.31074 88.920182 191.07623 85.67 193.44 C 83.121562 195.28669 79.94419 196.21 76.14 196.21 C 70.489116 196.21 66.09938 194.06433 62.96 189.78 C 58.454066 183.64898 56.2 174.17606 56.2 161.36 C 56.2 150.57531 57.662223 142.30169 60.58 136.54 C 64.162587 129.52256 69.390298 126.02 76.26 126.02 z M 205.67 127.9 C 203.23236 132.369 200.36712 136.41048 197.08 140.03 C 193.82982 143.64952 189.88367 147.10288 185.23 150.39 L 185.23 152.33 L 191.99 152.33 L 191.99 180.31 C 191.99 185.85008 192.17066 189.24425 192.54 190.5 C 193.16788 192.75297 194.60703 194.80331 196.86 196.65 C 199.1499 198.45976 201.94288 199.37 205.23 199.37 C 211.95197 199.37 216.80836 195.82131 219.8 188.73 L 218.14 187.51 C 215.99783 191.16645 213.7207 193 211.32 193 C 210.72906 193 210.08174 192.73707 209.38 192.22 C 208.67826 191.66599 208.18547 190.96948 207.89 190.12 C 207.63146 189.23359 207.5 187.29164 207.5 184.3 L 207.5 152.33 L 219.8 152.33 L 219.8 146.85 L 207.5 146.85 L 207.5 127.9 L 205.67 127.9 z " />
</svg>
