<svg
   xmlns="http://www.w3.org/2000/svg" 
   width="16px"
   height="16px"
   viewBox="0,0,256,256"
   fill="currentColor">
  <path
     d="M 61.44 0 C 55.840011 0 51.2 4.6400112 51.2 10.24 L 51.2 20.48 L 20.48 20.48 C 14.539993 20.48 10.24 24.779993 10.24 30.72 L 10.24 66.56 L 245.76 66.56 L 245.76 30.72 C 245.76 24.779993 241.46 20.48 235.52 20.48 L 204.8 20.48 L 204.8 10.24 C 204.8 4.6400112 200.15998 0 194.56 0 L 184.32 0 C 178.72002 0 174.08 4.6400112 174.08 10.24 L 174.08 20.48 L 81.92 20.48 L 81.92 10.24 C 81.92 4.6400112 77.279989 0 71.68 0 L 61.44 0 z M 61.44 10.24 L 71.68 10.24 L 71.68 40.96 L 61.44 40.96 L 61.44 10.24 z M 184.32 10.24 L 194.56 10.24 L 194.56 40.96 L 184.32 40.96 L 184.32 10.24 z M 10.24 76.8 L 10.24 235.52 C 10.24 241.43998 14.539993 245.76 20.48 245.76 L 235.52 245.76 C 241.43998 245.76 245.76 241.43998 245.76 235.52 L 245.76 76.8 L 10.24 76.8 z M 50.14 110.59 L 135.66 110.59 L 135.66 139.67 L 132.6 139.67 C 131.90223 132.84181 130.11076 127.78949 127.22 124.5 C 124.37908 121.21051 120.23264 118.8857 114.8 117.54 C 111.80955 116.79239 106.2842 116.42 98.21 116.42 L 88.79 116.42 L 88.79 158.07 L 91.7 158.07 C 96.185669 158.07 99.849076 157.3957 102.69 156.05 C 105.53092 154.7043 107.92621 152.42981 109.87 149.24 C 111.86363 146.05019 113.16191 141.74264 113.76 136.31 L 116.37 136.31 L 116.37 187.22 L 113.76 187.22 C 112.81303 177.60073 110.21647 171.27029 105.98 168.23 C 101.79338 165.13987 97.032962 163.6 91.7 163.6 L 88.79 163.6 L 88.79 194.62 C 88.79 199.80344 89.061752 203.04414 89.61 204.34 C 90.208089 205.63586 91.325255 206.78318 92.97 207.78 C 94.664586 208.72697 96.939076 209.2 99.78 209.2 L 103.14 209.2 L 103.14 211.97 L 50.14 211.97 L 50.14 209.2 L 53.5 209.2 C 56.440605 209.2 58.805732 208.67666 60.6 207.63 C 61.89586 206.93223 62.892229 205.73459 63.59 204.04 C 64.138248 202.84382 64.42 199.70376 64.42 194.62 L 64.42 127.94 C 64.42 122.75656 64.138248 119.51586 63.59 118.22 C 63.041752 116.92414 61.924586 115.79697 60.23 114.85 C 58.585255 113.85318 56.340924 113.36 53.5 113.36 L 50.14 113.36 L 50.14 110.59 z M 196.67 139.97 C 199.46108 139.97 201.67525 140.84557 203.32 142.59 C 205.01459 144.28459 205.86 146.70003 205.86 149.84 C 205.86 153.17933 205.04475 155.77589 203.4 157.62 C 201.8051 159.46411 199.86268 160.38 197.57 160.38 C 194.92844 160.38 192.63379 159.53459 190.69 157.84 C 188.74621 156.14541 187.59889 155.19936 187.25 155 C 186.75159 154.70096 186.17793 154.55 185.53 154.55 C 184.08462 154.55 182.71586 155.1035 181.42 156.2 C 179.37653 157.89459 177.82666 160.31003 176.78 163.45 C 175.1851 168.28455 174.39 173.61863 174.39 179.45 L 174.39 195.52 L 174.46 199.71 C 174.46 202.55092 174.64111 204.36255 174.99 205.16 C 175.58809 206.5057 176.45366 207.51207 177.6 208.16 C 178.79618 208.75809 180.78892 209.13048 183.58 209.28 L 183.58 211.97 L 145.83 211.97 L 145.83 209.28 C 148.87029 209.0308 150.91334 208.20554 151.96 206.81 C 153.0565 205.36462 153.61 201.60057 153.61 195.52 L 153.61 156.87 C 153.61 152.88274 153.40873 150.3365 153.01 149.24 C 152.51159 147.84446 151.78697 146.82793 150.84 146.18 C 149.89303 145.53207 148.22236 145.0792 145.83 144.83 L 145.83 142.07 L 174.39 142.07 L 174.39 157.92 C 179.02519 150.69309 183.09115 145.90252 186.58 143.56 C 190.06885 141.16764 193.43035 139.97 196.67 139.97 z " />
</svg>
