<svg
   xmlns="http://www.w3.org/2000/svg" 
   width="16px"
   height="16px"
   viewBox="0,0,256,256"
   fill="currentColor">
  <path
     d="M 61.44 0 C 55.840017 0 51.2 4.6400168 51.2 10.24 L 51.2 20.48 L 20.48 20.48 C 14.539999 20.48 10.24 24.779999 10.24 30.72 L 10.24 66.56 L 245.76 66.56 L 245.76 30.72 C 245.76 24.779999 241.45999 20.48 235.52 20.48 L 204.8 20.48 L 204.8 10.24 C 204.8 4.6400168 200.15997 0 194.56 0 L 184.32 0 C 178.72003 0 174.08 4.6400168 174.08 10.24 L 174.08 20.48 L 81.92 20.48 L 81.92 10.24 C 81.92 4.6400168 77.279983 0 71.68 0 L 61.44 0 z M 61.44 10.24 L 71.68 10.24 L 71.68 40.96 L 61.44 40.96 L 61.44 10.24 z M 184.32 10.24 L 194.56 10.24 L 194.56 40.96 L 184.32 40.96 L 184.32 10.24 z M 10.24 76.8 L 10.24 235.52 C 10.24 241.43997 14.539999 245.76 20.48 245.76 L 235.52 245.76 C 241.43997 245.76 245.76 241.43997 245.76 235.52 L 245.76 76.8 L 10.24 76.8 z M 19.99 86.79 L 236.01 86.79 L 236.01 236.01 L 19.99 236.01 L 19.99 86.79 z M 145.84 123.12 C 143.80864 123.12 142.07042 123.83958 140.63 125.28 C 139.18958 126.72042 138.47 128.45864 138.47 130.49 C 138.47 132.52136 139.18958 134.24958 140.63 135.69 C 142.07042 137.13042 143.80864 137.85 145.84 137.85 C 147.87136 137.85 149.60958 137.13042 151.05 135.69 C 152.49042 134.24958 153.21 132.52136 153.21 130.49 C 153.21 128.45864 152.49042 126.72042 151.05 125.28 C 149.64651 123.83958 147.9083 123.12 145.84 123.12 z M 166.56 123.12 C 164.52864 123.12 162.79042 123.83958 161.35 125.28 C 159.90958 126.72042 159.19 128.45864 159.19 130.49 C 159.19 132.52136 159.90958 134.24958 161.35 135.69 C 162.79042 137.13042 164.52864 137.85 166.56 137.85 C 168.59136 137.85 170.32958 137.13042 171.77 135.69 C 173.21042 134.24958 173.93 132.52136 173.93 130.49 C 173.93 128.45864 173.21042 126.72042 171.77 125.28 C 170.36651 123.83958 168.6283 123.12 166.56 123.12 z M 22.9 123.84 L 22.9 125.89 L 25.29 125.89 C 27.395231 125.89 29.074248 126.26132 30.33 127 C 31.585752 127.70174 32.413727 128.52972 32.82 129.49 C 33.226273 130.41335 33.43 132.77581 33.43 136.58 L 33.43 184.11 C 33.43 187.47098 33.393868 189.35373 33.32 189.76 C 32.913727 191.49589 32.338678 192.84972 31.6 193.81 C 30.861322 194.77028 29.770421 195.54906 28.33 196.14 C 26.889579 196.69401 25.342025 196.94693 23.68 196.91 L 22.9 196.91 L 22.9 198.96 L 48.61 198.96 L 48.61 196.91 C 45.175149 196.91 42.645091 196.33495 41.02 195.19 C 39.431843 194.00812 38.40014 192.49669 37.92 190.65 C 37.735331 189.80052 37.64 187.53339 37.64 183.84 L 37.64 130.93 L 66.89 198.96 L 68.22 198.96 L 97.03 130.43 L 97.03 186.11 C 97.03 189.87726 96.826273 192.20359 96.42 193.09 C 95.865992 194.34575 95.133347 195.23293 94.21 195.75 C 92.88038 196.52561 91.106033 196.91 88.89 196.91 L 86.45 196.91 L 86.45 198.96 L 125.67 198.96 L 125.67 196.91 L 123.24 196.91 C 121.13477 196.91 119.44575 196.56174 118.19 195.86 C 116.93425 195.12132 116.10627 194.27028 115.7 193.31 C 115.29373 192.34972 115.09 189.95112 115.09 186.11 L 115.09 136.58 C 115.09 132.84968 115.29373 130.54641 115.7 129.66 C 116.25401 128.44118 116.99665 127.56707 117.92 127.05 C 119.24962 126.27439 121.02397 125.89 123.24 125.89 L 125.67 125.89 L 125.67 123.84 L 95.09 123.84 L 74.7 173.37 L 53.6 123.84 L 22.9 123.84 z M 157.58 145.61 C 153.51727 145.61 149.60726 146.25731 145.84 147.55 C 142.07274 148.84269 139.13523 150.71236 137.03 153.15 C 134.92477 155.5507 133.87 158.07076 133.87 160.73 C 133.87 162.61363 134.64878 164.26651 136.2 165.67 C 137.78816 167.07349 139.74317 167.77 142.07 167.77 C 144.2491 167.77 146.00038 167.14575 147.33 165.89 C 148.69655 164.59731 149.38 163.03976 149.38 161.23 C 149.38 159.75264 148.68349 158.22816 147.28 156.64 C 146.24585 155.49505 145.73 154.52561 145.73 153.75 C 145.73 152.86359 146.20972 152.09481 147.17 151.43 C 148.72122 150.35892 150.6993 149.82 153.1 149.82 C 154.57736 149.82 155.90812 150.20439 157.09 150.98 C 158.27188 151.71868 159.06373 152.60585 159.47 153.64 C 159.91321 154.63721 160.13 157.09501 160.13 161.01 L 160.13 166.22 C 148.71743 171.46461 141.31792 175.67369 137.92 178.85 C 134.52208 181.98938 132.82 185.53807 132.82 189.49 C 132.82 192.40778 133.8025 194.8425 135.76 196.8 C 137.7175 198.72056 140.16529 199.68 143.12 199.68 C 148.14301 199.68 153.81431 196.89702 160.13 191.32 C 160.49934 194.12698 161.51798 196.22651 163.18 197.63 C 164.84202 198.99655 167.14529 199.68 170.1 199.68 C 172.6115 199.68 174.8525 199.06882 176.81 197.85 C 178.80443 196.59425 180.72331 194.60311 182.57 191.87 L 180.91 190.54 C 179.91279 191.90655 178.93028 192.59 177.97 192.59 C 177.48986 192.59 177.06934 192.44547 176.7 192.15 C 176.33066 191.85453 176.05467 191.41094 175.87 190.82 C 175.68533 190.19212 175.59 188.69377 175.59 186.33 L 175.59 166.22 C 175.59 160.64298 175.32707 157.08122 174.81 155.53 C 173.96052 153.09236 172.10084 150.8383 169.22 148.77 C 166.37609 146.66477 162.49221 145.61 157.58 145.61 z M 226.28 145.61 C 223.8793 145.61 221.38537 146.49717 218.8 148.27 C 216.21463 150.00589 213.20485 153.55459 209.77 158.91 L 209.77 147.16 L 188.61 147.16 L 188.61 149.21 C 190.38283 149.39467 191.61826 149.72986 192.32 150.21 C 193.02174 150.69014 193.56066 151.44585 193.93 152.48 C 194.22547 153.29255 194.37 155.17529 194.37 158.13 L 194.37 186.77 C 194.37 191.27593 193.96255 194.06892 193.15 195.14 C 192.37439 196.17415 190.86297 196.78533 188.61 196.97 L 188.61 198.96 L 216.59 198.96 L 216.59 196.97 C 214.5217 196.8592 213.03641 196.58321 212.15 196.14 C 211.30052 195.65986 210.65321 194.91721 210.21 193.92 C 209.95146 193.32906 209.83 191.98523 209.83 189.88 L 209.77 186.77 L 209.77 174.86 C 209.77 170.53874 210.35812 166.59259 211.54 163.01 C 212.31561 160.68317 213.46571 158.88575 214.98 157.63 C 215.94028 156.81745 216.95892 156.41 218.03 156.41 C 218.51014 156.41 218.93066 156.5284 219.3 156.75 C 219.55854 156.89774 220.40958 157.59425 221.85 158.85 C 223.29042 160.10575 224.9925 160.73 226.95 160.73 C 228.64896 160.73 230.08812 160.05655 231.27 158.69 C 232.48882 157.32345 233.1 155.39457 233.1 152.92 C 233.1 150.59317 232.46575 148.80575 231.21 147.55 C 229.99118 146.25731 228.3483 145.61 226.28 145.61 z M 160.13 169.93 L 160.13 187.27 C 157.69236 189.3383 155.55669 190.37 153.71 190.37 C 152.04798 190.37 150.75335 189.87721 149.83 188.88 C 148.61118 187.58731 148 186.08896 148 184.39 C 148 182.35864 148.71958 180.34443 150.16 178.35 C 152.3391 175.35836 155.661 172.55231 160.13 169.93 z " />
</svg>
