<svg
   xmlns="http://www.w3.org/2000/svg" 
   width="16px"
   height="16px"
   viewBox="0,0,256,256"
   fill="currentColor">
  <path
     d="M 61.44 0 C 55.840017 0 51.2 4.6400168 51.2 10.24 L 51.2 20.48 L 20.48 20.48 C 14.539999 20.48 10.24 24.779999 10.24 30.72 L 10.24 66.56 L 245.76 66.56 L 245.76 30.72 C 245.76 24.779999 241.45999 20.48 235.52 20.48 L 204.8 20.48 L 204.8 10.24 C 204.8 4.6400168 200.15997 0 194.56 0 L 184.32 0 C 178.72003 0 174.08 4.6400168 174.08 10.24 L 174.08 20.48 L 81.92 20.48 L 81.92 10.24 C 81.92 4.6400168 77.279983 0 71.68 0 L 61.44 0 z M 61.44 10.24 L 71.68 10.24 L 71.68 40.96 L 61.44 40.96 L 61.44 10.24 z M 184.32 10.24 L 194.56 10.24 L 194.56 40.96 L 184.32 40.96 L 184.32 10.24 z M 10.24 76.8 L 10.24 235.52 C 10.24 241.43997 14.539999 245.76 20.48 245.76 L 235.52 245.76 C 241.43997 245.76 245.76 241.43997 245.76 235.52 L 245.76 76.8 L 10.24 76.8 z M 19.99 86.79 L 236.01 86.79 L 236.01 236.01 L 19.99 236.01 L 19.99 86.79 z M 68.39 110.85 C 61.704967 110.85 56.165132 112.94954 51.77 117.16 C 47.374868 121.37046 45.18 126.46671 45.18 132.45 C 45.18 135.95872 45.971843 139.17222 47.56 142.09 C 49.185091 145.00778 51.488356 147.64623 54.48 150.01 C 57.471644 152.37377 62.387232 155.23902 69.22 158.6 C 74.095272 161.0007 77.489438 162.95571 79.41 164.47 C 81.330562 165.94736 82.756653 167.51798 83.68 169.18 C 84.640281 170.84202 85.12 172.56717 85.12 174.34 C 85.12 177.33164 83.88457 179.94703 81.41 182.2 C 78.972364 184.45297 75.686595 185.58 71.55 185.58 C 66.194587 185.58 61.183669 183.49353 56.53 179.32 C 51.913265 175.10954 48.795091 169.01772 47.17 161.04 L 45.12 161.04 L 45.12 189.4 L 47.17 189.4 C 47.83481 187.88571 48.698917 186.76868 49.77 186.03 C 50.841083 185.29132 51.859719 184.92 52.82 184.92 C 53.96495 184.92 55.427174 185.29132 57.2 186.03 C 60.376314 187.35962 63.014769 188.25986 65.12 188.74 C 67.225231 189.22014 69.456232 189.46 71.82 189.46 C 79.354512 189.46 85.564728 187.20593 90.44 182.7 C 95.352206 178.15713 97.81 172.74876 97.81 166.47 C 97.81 161.52086 96.288578 157.12112 93.26 153.28 C 90.194488 149.43888 84.270264 145.36126 75.48 141.04 C 69.20124 137.93755 65.195892 135.77882 63.46 134.56 C 61.096232 132.86104 59.381083 131.14589 58.31 129.41 C 57.534388 128.11731 57.14 126.63202 57.14 124.97 C 57.14 122.34769 58.230901 120.04443 60.41 118.05 C 62.626033 116.01864 65.622744 115 69.39 115 C 74.265272 115 78.786471 116.91888 82.96 120.76 C 87.170463 124.56419 89.808917 129.61124 90.88 135.89 L 93.15 135.89 L 92.54 110.85 L 90.88 110.85 C 90.39986 113.10297 89.884008 114.51906 89.33 115.11 C 88.775992 115.70094 88.020281 116 87.06 116 C 86.062785 116 84.311504 115.41188 81.8 114.23 C 79.32543 113.01118 77.215892 112.17321 75.48 111.73 C 73.190099 111.13906 70.827636 110.85 68.39 110.85 z M 130.16 134.34 C 123.88124 134.34 118.4006 136.90619 113.71 142.04 C 109.05633 147.13688 106.73 154.00747 106.73 162.65 C 106.73 169.70437 108.31369 175.60553 111.49 180.37 C 115.44193 186.27942 121.25775 189.24 128.94 189.24 C 133.409 189.24 137.34208 188.05377 140.74 185.69 C 144.13792 183.2893 147.24302 179.22475 150.05 173.5 L 148.17 172.29 C 146.1017 175.50325 144.15976 177.73425 142.35 178.99 C 140.54024 180.20882 138.52603 180.82 136.31 180.82 C 132.72741 180.82 129.65844 179.28551 127.11 176.22 C 123.78595 172.23114 121.9624 166.7997 121.63 159.93 L 150.05 159.93 C 149.75453 151.47214 147.66806 145.10433 143.79 140.82 C 139.94888 136.49874 135.40461 134.34 130.16 134.34 z M 190.94 134.34 C 187.76369 134.34 184.82617 135.20411 182.13 136.94 C 180.24637 138.12188 178.39976 140.04076 176.59 142.7 L 176.59 135.89 L 154.87 135.89 L 154.87 137.94 C 157.30764 138.08774 158.95052 138.67585 159.8 139.71 C 160.64948 140.70721 161.07 143.03355 161.07 146.69 L 161.07 201.37 C 161.07 204.91565 160.70868 207.11052 159.97 207.96 C 158.86198 209.17882 157.1599 209.82613 154.87 209.9 L 154.87 211.95 L 184.4 211.95 L 184.4 209.9 C 181.81463 209.9 180.07641 209.68321 179.19 209.24 C 178.30359 208.79679 177.64321 208.09028 177.2 207.13 C 176.79373 206.16972 176.59 204.35924 176.59 201.7 L 176.59 182.42 C 178.62136 184.74683 180.55331 186.39972 182.4 187.36 C 184.87457 188.61575 187.53609 189.24 190.38 189.24 C 194.29499 189.24 197.84369 188.11297 201.02 185.86 C 204.23325 183.5701 206.66798 180.26126 208.33 175.94 C 210.02896 171.5818 210.88 166.78461 210.88 161.54 C 210.88 156.66473 210.06509 152.12046 208.44 147.91 C 206.81491 143.6626 204.43938 140.3407 201.3 137.94 C 198.19755 135.5393 194.74419 134.34 190.94 134.34 z M 129.33 137.94 C 130.62269 137.94 131.65439 138.26519 132.43 138.93 C 133.79655 140.07495 134.79212 141.76397 135.42 143.98 C 136.08481 146.19603 136.42 150.27365 136.42 156.22 L 121.35 156.22 L 121.35 154.28 C 121.35 148.55525 122.4409 144.04712 124.62 140.76 C 125.83882 138.87637 127.40944 137.94 129.33 137.94 z M 185.78 141.1 C 188.14377 141.1 190.02651 142.1809 191.43 144.36 C 193.53523 147.64712 194.59 153.762 194.59 162.7 C 194.59 171.4164 193.63056 177.32755 191.71 180.43 C 190.41731 182.53523 188.77443 183.59 186.78 183.59 C 183.16048 183.59 179.76631 181.33593 176.59 176.83 L 176.59 149.18 C 178.9907 143.78765 182.04968 141.1 185.78 141.1 z " />
</svg>
