<svg
   xmlns="http://www.w3.org/2000/svg" 
   width="16px"
   height="16px"
   viewBox="0,0,256,256"
   fill="currentColor">
  <path
     d="M 61.44 0 C 55.840017 0 51.2 4.6400168 51.2 10.24 L 51.2 20.48 L 20.48 20.48 C 14.539999 20.48 10.24 24.779999 10.24 30.72 L 10.24 66.56 L 245.76 66.56 L 245.76 30.72 C 245.76 24.779999 241.45999 20.48 235.52 20.48 L 204.8 20.48 L 204.8 10.24 C 204.8 4.6400168 200.15997 0 194.56 0 L 184.32 0 C 178.72003 0 174.08 4.6400168 174.08 10.24 L 174.08 20.48 L 81.92 20.48 L 81.92 10.24 C 81.92 4.6400168 77.279983 0 71.68 0 L 61.44 0 z M 61.44 10.24 L 71.68 10.24 L 71.68 40.96 L 61.44 40.96 L 61.44 10.24 z M 184.32 10.24 L 194.56 10.24 L 194.56 40.96 L 184.32 40.96 L 184.32 10.24 z M 10.24 76.8 L 10.24 235.52 C 10.24 241.43997 14.539999 245.76 20.48 245.76 L 235.52 245.76 C 241.43997 245.76 245.76 241.43997 245.76 235.52 L 245.76 76.8 L 10.24 76.8 z M 19.99 86.79 L 236.01 86.79 L 236.01 236.01 L 19.99 236.01 L 19.99 86.79 z M 68.53 110.82 L 41.66 170.76 C 39.111562 176.48475 36.965892 180.27331 35.23 182.12 C 33.494108 183.92976 31.276173 185.03373 28.58 185.44 L 28.58 187.49 L 53.57 187.49 L 53.57 185.44 C 49.655009 185.14453 47.197215 184.70094 46.2 184.11 C 44.501041 183.11279 43.65 181.56523 43.65 179.46 C 43.65 177.87184 44.165851 175.85764 45.2 173.42 L 48.36 166.11 L 74.9 166.11 L 78.89 175.47 C 79.924149 177.90764 80.476132 179.2976 80.55 179.63 C 80.771603 180.33174 80.88 181.01519 80.88 181.68 C 80.88 182.78802 80.472545 183.62906 79.66 184.22 C 78.478116 185.03255 76.427777 185.44 73.51 185.44 L 72.02 185.44 L 72.02 187.49 L 108.36 187.49 L 108.36 185.44 C 106.0701 185.25533 104.29575 184.59495 103.04 183.45 C 101.37798 181.93571 99.255372 178.25555 96.67 172.42 L 69.58 110.82 L 68.53 110.82 z M 199.16 134.14 C 192.65964 134.14 187.34659 136.00968 183.21 139.74 C 179.07341 143.43339 177 147.81006 177 152.87 C 177 156.74806 178.11397 160.16529 180.33 163.12 C 182.54603 166.07471 186.12086 168.45024 191.07 170.26 C 186.8226 172.03283 183.7275 174.1193 181.77 176.52 C 179.8125 178.9207 178.83 181.40156 178.83 183.95 C 178.83 188.16046 181.2286 191.44623 186.03 193.81 C 182.55822 194.73335 180.18269 195.86038 178.89 197.19 C 177.63425 198.55655 177 200.09104 177 201.79 C 177 203.56283 177.83798 205.24184 179.5 206.83 C 181.16202 208.45509 183.90888 209.71359 187.75 210.6 C 191.59112 211.52335 195.83633 211.98 200.49 211.98 C 206.69489 211.98 212.18553 211.07976 216.95 209.27 C 220.08938 208.05118 222.61944 206.14537 224.54 203.56 C 226.46056 201.01156 227.42 198.16938 227.42 195.03 C 227.42 190.11779 225.33353 186.47377 221.16 184.11 C 218.24222 182.41104 212.90612 181.57 205.15 181.57 L 195.56 181.68 C 193.2701 181.68 191.61415 181.24948 190.58 180.4 C 189.58279 179.55052 189.08 178.45962 189.08 177.13 C 189.08 175.61571 189.63198 174.33108 190.74 173.26 C 191.88495 172.15198 193.28798 171.59 194.95 171.59 C 199.16046 171.77467 201.3784 171.87 201.6 171.87 C 204.33311 171.87 207.45128 171.11429 210.96 169.6 C 214.50565 168.04878 217.29864 165.92617 219.33 163.23 C 221.3983 160.49689 222.43 157.28339 222.43 153.59 C 222.43 151.4109 221.98641 149.32443 221.1 147.33 C 220.39826 145.85264 219.13976 144.20976 217.33 142.4 L 227.25 142.4 L 227.25 136.3 L 209.8 136.3 C 206.14355 134.85958 202.59485 134.14 199.16 134.14 z M 113.12 135.69 L 113.12 137.74 C 115.4099 138.03547 116.90826 138.66972 117.61 139.63 C 118.34868 140.59028 118.72 143.02501 118.72 146.94 L 118.72 167.49 C 118.72 173.47329 119.10439 177.6693 119.88 180.07 C 120.65561 182.4707 122.17703 184.58024 124.43 186.39 C 126.7199 188.16283 129.32222 189.04 132.24 189.04 C 135.30551 189.04 138.07543 188.37962 140.55 187.05 C 143.02457 185.68345 145.49543 183.52471 147.97 180.57 L 147.97 187.49 L 169.08 187.49 L 169.08 185.5 C 166.82703 185.24146 165.32868 184.63028 164.59 183.67 C 163.85132 182.67279 163.48 180.20193 163.48 176.25 L 163.48 135.69 L 142.38 135.69 L 142.38 137.74 C 144.6699 138.03547 146.15826 138.66972 146.86 139.63 C 147.59868 140.59028 147.97 143.02501 147.97 146.94 L 147.97 174.64 C 145.9017 177.55778 144.12736 179.49972 142.65 180.46 C 141.57892 181.16174 140.37962 181.51 139.05 181.51 C 138.05279 181.51 137.16561 181.23401 136.39 180.68 C 135.65132 180.12599 135.09934 179.31108 134.73 178.24 C 134.3976 177.16892 134.23 174.78339 134.23 171.09 L 134.23 135.69 L 113.12 135.69 z M 61.82 136.14 L 73.01 162.01 L 50.3 162.01 L 61.82 136.14 z M 200.22 137.58 C 202.36217 137.58 204.01812 138.46717 205.2 140.24 C 206.86202 142.6407 207.69 147.13884 207.69 153.75 C 207.69 159.62249 206.95736 163.57864 205.48 165.61 C 204.00264 167.64136 202.15603 168.66 199.94 168.66 C 197.94557 168.66 196.20736 167.64136 194.73 165.61 C 193.28958 163.5417 192.57 159.75315 192.57 154.25 C 192.57 147.45417 193.31264 142.99217 194.79 140.85 C 196.26736 138.6709 198.07783 137.58 200.22 137.58 z M 196.95 195.14 C 205.6664 195.14 211.01557 195.34373 213.01 195.75 C 215.04136 196.15627 216.56279 196.91198 217.56 198.02 C 218.11401 198.64788 218.39 199.42665 218.39 200.35 C 218.39 202.82457 216.90471 204.74345 213.95 206.11 C 211.03222 207.47655 207.01381 208.16 201.88 208.16 C 195.85978 208.16 191.7591 207.38122 189.58 205.83 C 187.4009 204.31571 186.31 202.61363 186.31 200.73 C 186.31 198.7725 187.36477 197.22495 189.47 196.08 C 190.68882 195.45212 193.18274 195.14 196.95 195.14 z " />
</svg>
