<svg
   xmlns="http://www.w3.org/2000/svg" 
   width="16px"
   height="16px"
   viewBox="0,0,256,256"
   fill="currentColor">
  <path
     d="M 61.44 0 C 55.840017 0 51.2 4.6400168 51.2 10.24 L 51.2 20.48 L 20.48 20.48 C 14.539999 20.48 10.24 24.779999 10.24 30.72 L 10.24 66.56 L 245.76 66.56 L 245.76 30.72 C 245.76 24.779999 241.45999 20.48 235.52 20.48 L 204.8 20.48 L 204.8 10.24 C 204.8 4.6400168 200.15997 0 194.56 0 L 184.32 0 C 178.72003 0 174.08 4.6400168 174.08 10.24 L 174.08 20.48 L 81.92 20.48 L 81.92 10.24 C 81.92 4.6400168 77.279983 0 71.68 0 L 61.44 0 z M 61.44 10.24 L 71.68 10.24 L 71.68 40.96 L 61.44 40.96 L 61.44 10.24 z M 184.32 10.24 L 194.56 10.24 L 194.56 40.96 L 184.32 40.96 L 184.32 10.24 z M 10.24 76.8 L 10.24 235.52 C 10.24 241.43997 14.539999 245.76 20.48 245.76 L 235.52 245.76 C 241.43997 245.76 245.76 241.43997 245.76 235.52 L 245.76 76.8 L 10.24 76.8 z M 19.99 86.79 L 236.01 86.79 L 236.01 236.01 L 19.99 236.01 L 19.99 86.79 z M 53.71 122.98 L 53.71 125.03 L 56.87 125.03 C 58.975231 125.03 60.631182 125.40132 61.85 126.14 C 63.105752 126.84174 63.933727 127.66972 64.34 128.63 C 64.783207 129.59028 65.01 131.98888 65.01 135.83 L 65.01 176 C 65.01 183.82998 64.783207 188.61411 64.34 190.35 C 63.933727 192.04896 63.214149 193.29745 62.18 194.11 C 61.145851 194.92255 59.838157 195.33 58.25 195.33 C 55.997033 195.33 54.173488 194.81415 52.77 193.78 C 51.809719 193.07826 51.33 192.25028 51.33 191.29 C 51.33 190.66212 51.822785 189.60736 52.82 188.13 C 53.854149 186.61571 54.442264 185.67934 54.59 185.31 C 54.848537 184.53439 54.98 183.62415 54.98 182.59 C 54.98 180.48477 54.201223 178.71042 52.65 177.27 C 51.135711 175.82958 49.252967 175.11 47 175.11 C 44.710099 175.11 42.778157 175.92491 41.19 177.55 C 39.601843 179.13816 38.8 181.22463 38.8 183.81 C 38.8 187.83579 40.741942 191.50595 44.62 194.83 C 48.534991 198.15405 53.654306 199.82 59.97 199.82 C 65.140743 199.82 69.553546 198.7291 73.21 196.55 C 76.903388 194.33397 79.469579 191.60018 80.91 188.35 C 82.350421 185.06288 83.07 179.82211 83.07 172.62 L 83.07 135.83 C 83.07 132.06274 83.273727 129.73641 83.68 128.85 C 84.234008 127.59425 84.976653 126.70707 85.9 126.19 C 87.22962 125.41439 88.993967 125.03 91.21 125.03 L 93.65 125.03 L 93.65 122.98 L 53.71 122.98 z M 197.92 144.75 C 195.11302 144.75 192.48764 145.42038 190.05 146.75 C 187.61236 148.04269 185.05924 150.12916 182.4 153.01 L 182.4 146.3 L 161.3 146.3 L 161.3 148.35 C 163.5899 148.64547 165.07826 149.27972 165.78 150.24 C 166.51868 151.20028 166.89 153.63501 166.89 157.55 L 166.89 186.8 C 166.89 190.78886 166.57788 193.18745 165.95 194 C 165.02665 195.18188 163.4791 195.8884 161.3 196.11 L 161.3 198.1 L 187.5 198.1 L 187.5 196.11 C 185.5425 195.85146 184.19868 195.20415 183.46 194.17 C 182.75826 193.13585 182.4 190.67806 182.4 186.8 L 182.4 159.05 C 185.13311 154.50713 188.09369 152.23 191.27 152.23 C 192.23028 152.23 193.09439 152.54212 193.87 153.17 C 194.68255 153.76094 195.2576 154.61198 195.59 155.72 C 195.9224 156.82802 196.09 159.5026 196.09 163.75 L 196.09 186.8 C 196.09 190.45645 195.79094 192.74665 195.2 193.67 C 194.35052 195.03655 192.9475 195.85146 190.99 196.11 L 190.99 198.1 L 217.2 198.1 L 217.2 196.11 C 214.9101 195.85146 213.38868 195.24028 212.65 194.28 C 211.94826 193.28279 211.6 190.78886 211.6 186.8 L 211.6 166.64 C 211.6 160.65671 211.30094 156.60523 210.71 154.5 C 209.97132 151.72996 208.49603 149.42669 206.28 147.58 C 204.06397 145.69637 201.28098 144.75 197.92 144.75 z M 97.81 146.3 L 97.81 148.35 C 100.0999 148.64547 101.58826 149.27972 102.29 150.24 C 103.02868 151.20028 103.4 153.63501 103.4 157.55 L 103.4 178.1 C 103.4 184.08329 103.79439 188.2793 104.57 190.68 C 105.34561 193.0807 106.85703 195.18024 109.11 196.99 C 111.3999 198.76283 114.00222 199.65 116.92 199.65 C 119.98551 199.65 122.75543 198.98962 125.23 197.66 C 127.70457 196.29345 130.17543 194.13471 132.65 191.18 L 132.65 198.1 L 153.76 198.1 L 153.76 196.11 C 151.50703 195.85146 150.00868 195.24028 149.27 194.28 C 148.53132 193.28279 148.17 190.81193 148.17 186.86 L 148.17 146.3 L 127.06 146.3 L 127.06 148.35 C 129.3499 148.64547 130.84826 149.27972 131.55 150.24 C 132.28868 151.20028 132.65 153.63501 132.65 157.55 L 132.65 185.25 C 130.5817 188.16778 128.81736 190.10972 127.34 191.07 C 126.26892 191.77174 125.05962 192.12 123.73 192.12 C 122.73279 192.12 121.84561 191.84401 121.07 191.29 C 120.33132 190.73599 119.77934 189.92108 119.41 188.85 C 119.0776 187.77892 118.91 185.39339 118.91 181.7 L 118.91 146.3 L 97.81 146.3 z " />
</svg>
