<svg
   xmlns="http://www.w3.org/2000/svg" 
   width="16px"
   height="16px"
   viewBox="0,0,256,256"
   fill="currentColor">
  <path
     d="M 61.44 0 C 55.840017 0 51.2 4.6400168 51.2 10.24 L 51.2 20.48 L 20.48 20.48 C 14.539999 20.48 10.24 24.779999 10.24 30.72 L 10.24 66.56 L 245.76 66.56 L 245.76 30.72 C 245.76 24.779999 241.45999 20.48 235.52 20.48 L 204.8 20.48 L 204.8 10.24 C 204.8 4.6400168 200.15997 0 194.56 0 L 184.32 0 C 178.72003 0 174.08 4.6400168 174.08 10.24 L 174.08 20.48 L 81.92 20.48 L 81.92 10.24 C 81.92 4.6400168 77.279983 0 71.68 0 L 61.44 0 z M 61.44 10.24 L 71.68 10.24 L 71.68 40.96 L 61.44 40.96 L 61.44 10.24 z M 184.32 10.24 L 194.56 10.24 L 194.56 40.96 L 184.32 40.96 L 184.32 10.24 z M 10.24 76.8 L 10.24 235.52 C 10.24 241.43997 14.539999 245.76 20.48 245.76 L 235.52 245.76 C 241.43997 245.76 245.76 241.43997 245.76 235.52 L 245.76 76.8 L 10.24 76.8 z M 19.99 86.79 L 236.01 86.79 L 236.01 236.01 L 19.99 236.01 L 19.99 86.79 z M 56.89 122.98 L 56.89 125.03 L 60.05 125.03 C 62.155231 125.03 63.821182 125.40132 65.04 126.14 C 66.295752 126.84174 67.123727 127.66971 67.53 128.63 C 67.973206 129.59028 68.19 131.98888 68.19 135.83 L 68.19 176 C 68.19 183.82998 67.973206 188.6141 67.53 190.35 C 67.123727 192.04896 66.404148 193.29745 65.37 194.11 C 64.335851 194.92255 63.028157 195.33 61.44 195.33 C 59.187034 195.33 57.353488 194.81415 55.95 193.78 C 54.98972 193.07825 54.51 192.25028 54.51 191.29 C 54.51 190.66213 55.012786 189.60736 56.01 188.13 C 57.044149 186.61571 57.632265 185.67933 57.78 185.31 C 58.038537 184.53439 58.17 183.62415 58.17 182.59 C 58.17 180.48477 57.391222 178.71042 55.84 177.27 C 54.325711 175.82957 52.442967 175.11 50.19 175.11 C 47.9001 175.11 45.958157 175.92491 44.37 177.55 C 42.781843 179.13816 41.99 181.22463 41.99 183.81 C 41.99 187.8358 43.931943 191.50595 47.81 194.83 C 51.724991 198.15405 56.834306 199.82 63.15 199.82 C 68.320743 199.82 72.733546 198.7291 76.39 196.55 C 80.083388 194.33397 82.649579 191.60018 84.09 188.35 C 85.530422 185.06289 86.26 179.82211 86.26 172.62 L 86.26 135.83 C 86.26 132.06274 86.453728 129.73641 86.86 128.85 C 87.414009 127.59425 88.156654 126.70707 89.08 126.19 C 90.40962 125.41439 92.183967 125.03 94.4 125.03 L 96.84 125.03 L 96.84 122.98 L 56.89 122.98 z M 127.36 144.75 C 123.29727 144.75 119.38726 145.39731 115.62 146.69 C 111.85274 147.98269 108.91523 149.85236 106.81 152.29 C 104.70477 154.6907 103.65 157.22076 103.65 159.88 C 103.65 161.76363 104.42877 163.40651 105.98 164.81 C 107.56815 166.21349 109.52316 166.91 111.85 166.91 C 114.0291 166.91 115.78038 166.28575 117.11 165.03 C 118.47656 163.73731 119.16 162.17976 119.16 160.37 C 119.16 158.89265 118.46349 157.36816 117.06 155.78 C 116.02585 154.63505 115.51 153.67561 115.51 152.9 C 115.51 152.01359 115.98972 151.23481 116.95 150.57 C 118.50123 149.49891 120.4793 148.96 122.88 148.96 C 124.35736 148.96 125.67811 149.35439 126.86 150.13 C 128.04189 150.86868 128.84373 151.74585 129.25 152.78 C 129.69321 153.77721 129.91 156.235 129.91 160.15 L 129.91 165.36 C 118.49742 170.60461 111.09792 174.81368 107.7 177.99 C 104.30208 181.12938 102.6 184.67807 102.6 188.63 C 102.6 191.54778 103.5725 193.98251 105.53 195.94 C 107.4875 197.86056 109.94529 198.82 112.9 198.82 C 117.92301 198.82 123.59431 196.03701 129.91 190.46 C 130.27933 193.26697 131.29797 195.36651 132.96 196.77 C 134.62203 198.13655 136.92529 198.82 139.88 198.82 C 142.3915 198.82 144.6325 198.20882 146.59 196.99 C 148.58443 195.73425 150.50331 193.7431 152.35 191.01 L 150.69 189.68 C 149.69278 191.04655 148.71028 191.73 147.75 191.73 C 147.26986 191.73 146.84934 191.58547 146.48 191.29 C 146.11066 190.99453 145.83467 190.55094 145.65 189.96 C 145.46533 189.33212 145.37 187.83376 145.37 185.47 L 145.37 165.36 C 145.37 159.78299 145.10707 156.22123 144.59 154.67 C 143.74052 152.23236 141.88084 149.9783 139 147.91 C 136.15609 145.80477 132.2722 144.75 127.36 144.75 z M 194.73 144.75 C 191.92303 144.75 189.29764 145.42038 186.86 146.75 C 184.42236 148.04269 181.87924 150.12916 179.22 153.01 L 179.22 146.3 L 158.11 146.3 L 158.11 148.35 C 160.3999 148.64547 161.89826 149.27972 162.6 150.24 C 163.33868 151.20028 163.71 153.635 163.71 157.55 L 163.71 186.8 C 163.71 190.78886 163.38787 193.18745 162.76 194 C 161.83665 195.18189 160.2891 195.88839 158.11 196.11 L 158.11 198.1 L 184.31 198.1 L 184.31 196.11 C 182.3525 195.85146 181.00868 195.20415 180.27 194.17 C 179.56826 193.13585 179.22 190.67806 179.22 186.8 L 179.22 159.05 C 181.9531 154.50713 184.90368 152.23 188.08 152.23 C 189.04028 152.23 189.91439 152.54212 190.69 153.17 C 191.50255 153.76094 192.06759 154.61198 192.4 155.72 C 192.7324 156.82801 192.9 159.5026 192.9 163.75 L 192.9 186.8 C 192.9 190.45646 192.61094 192.74665 192.02 193.67 C 191.17052 195.03655 189.7675 195.85146 187.81 196.11 L 187.81 198.1 L 214.01 198.1 L 214.01 196.11 C 211.7201 195.85146 210.20867 195.24028 209.47 194.28 C 208.76825 193.28278 208.41 190.78886 208.41 186.8 L 208.41 166.64 C 208.41 160.65671 208.12094 156.60523 207.53 154.5 C 206.79132 151.72996 205.31603 149.42669 203.1 147.58 C 200.88396 145.69637 198.09098 144.75 194.73 144.75 z M 129.91 169.07 L 129.91 186.41 C 127.47236 188.4783 125.3267 189.52 123.48 189.52 C 121.81797 189.52 120.53335 189.01721 119.61 188.02 C 118.39118 186.72731 117.78 185.22896 117.78 183.53 C 117.78 181.49864 118.49957 179.48443 119.94 177.49 C 122.1191 174.49836 125.441 171.6923 129.91 169.07 z " />
</svg>
