<svg
   xmlns="http://www.w3.org/2000/svg" 
   width="16px"
   height="16px"
   viewBox="0,0,256,256"
   fill="currentColor">
  <path
     d="M 61.44 0 C 55.840017 0 51.2 4.6400168 51.2 10.24 L 51.2 20.48 L 20.48 20.48 C 14.539999 20.48 10.24 24.779999 10.24 30.72 L 10.24 66.56 L 245.76 66.56 L 245.76 30.72 C 245.76 24.779999 241.45999 20.48 235.52 20.48 L 204.8 20.48 L 204.8 10.24 C 204.8 4.6400168 200.15997 0 194.56 0 L 184.32 0 C 178.72003 0 174.08 4.6400168 174.08 10.24 L 174.08 20.48 L 81.92 20.48 L 81.92 10.24 C 81.92 4.6400168 77.279983 0 71.68 0 L 61.44 0 z M 61.44 10.24 L 71.68 10.24 L 71.68 40.96 L 61.44 40.96 L 61.44 10.24 z M 184.32 10.24 L 194.56 10.24 L 194.56 40.96 L 184.32 40.96 L 184.32 10.24 z M 10.24 76.8 L 10.24 235.52 C 10.24 241.43997 14.539999 245.76 20.48 245.76 L 235.52 245.76 C 241.43997 245.76 245.76 241.43997 245.76 235.52 L 245.76 76.8 L 10.24 76.8 z M 19.99 86.79 L 236.01 86.79 L 236.01 236.01 L 19.99 236.01 L 19.99 86.79 z M 209.91 122.59 C 207.54623 122.59 205.53202 123.44104 203.87 125.14 C 202.20798 126.80202 201.38 128.81623 201.38 131.18 C 201.38 133.54377 202.20798 135.55798 203.87 137.22 C 205.53202 138.88202 207.54623 139.71 209.91 139.71 C 212.27377 139.71 214.28798 138.88202 215.95 137.22 C 217.64896 135.55798 218.5 133.54377 218.5 131.18 C 218.5 128.81623 217.66202 126.80202 216 125.14 C 214.33798 123.44104 212.3107 122.59 209.91 122.59 z M 32.07 124.36 L 32.07 126.41 L 34.46 126.41 C 36.565231 126.41 38.244248 126.78132 39.5 127.52 C 40.755752 128.22174 41.583727 129.05972 41.99 130.02 C 42.396273 130.94335 42.6 133.30581 42.6 137.11 L 42.6 184.64 C 42.6 188.00098 42.563868 189.88373 42.49 190.29 C 42.083727 192.02589 41.508678 193.37972 40.77 194.34 C 40.031322 195.30028 38.940421 196.06906 37.5 196.66 C 36.059579 197.21401 34.512025 197.47693 32.85 197.44 L 32.07 197.44 L 32.07 199.49 L 57.78 199.49 L 57.78 197.44 C 54.345149 197.44 51.815091 196.86495 50.19 195.72 C 48.601843 194.53812 47.57014 193.02669 47.09 191.18 C 46.905331 190.33052 46.81 188.05339 46.81 184.36 L 46.81 131.46 L 76.06 199.49 L 77.39 199.49 L 106.2 130.96 L 106.2 186.63 C 106.2 190.39726 105.99627 192.73359 105.59 193.62 C 105.03599 194.87575 104.29335 195.75293 103.37 196.27 C 102.04038 197.04561 100.27603 197.44 98.06 197.44 L 95.62 197.44 L 95.62 199.49 L 134.84 199.49 L 134.84 197.44 L 132.4 197.44 C 130.29477 197.44 128.61575 197.09174 127.36 196.39 C 126.10425 195.65132 125.27627 194.80028 124.87 193.84 C 124.46373 192.87972 124.26 190.47112 124.26 186.63 L 124.26 137.11 C 124.26 133.37968 124.46373 131.06641 124.87 130.18 C 125.42401 128.96118 126.16665 128.09707 127.09 127.58 C 128.41962 126.80439 130.18397 126.41 132.4 126.41 L 134.84 126.41 L 134.84 124.36 L 104.26 124.36 L 83.87 173.89 L 62.77 124.36 L 32.07 124.36 z M 166.75 146.14 C 162.68727 146.14 158.77726 146.78731 155.01 148.08 C 151.24274 149.37269 148.30523 151.23236 146.2 153.67 C 144.09477 156.0707 143.04 158.60076 143.04 161.26 C 143.04 163.14363 143.81878 164.78651 145.37 166.19 C 146.95816 167.59349 148.91317 168.3 151.24 168.3 C 153.4191 168.3 155.17038 167.66575 156.5 166.41 C 157.86655 165.11731 158.55 163.56976 158.55 161.76 C 158.55 160.28264 157.85349 158.74816 156.45 157.16 C 155.41585 156.01505 154.9 155.05561 154.9 154.28 C 154.9 153.39359 155.37972 152.61481 156.34 151.95 C 157.89122 150.87892 159.8693 150.35 162.27 150.35 C 163.74736 150.35 165.06812 150.73439 166.25 151.51 C 167.43188 152.24868 168.23373 153.13585 168.64 154.17 C 169.08321 155.16721 169.3 157.62501 169.3 161.54 L 169.3 166.75 C 157.88743 171.99461 150.48792 176.20369 147.09 179.38 C 143.69208 182.51938 141.99 186.05807 141.99 190.01 C 141.99 192.92778 142.9625 195.3725 144.92 197.33 C 146.8775 199.25056 149.33529 200.21 152.29 200.21 C 157.31301 200.21 162.98431 197.41702 169.3 191.84 C 169.66934 194.64698 170.68798 196.75651 172.35 198.16 C 174.01202 199.52655 176.31529 200.21 179.27 200.21 C 181.7815 200.21 184.0225 199.59882 185.98 198.38 C 187.97443 197.12425 189.89331 195.13311 191.74 192.4 L 190.08 191.07 C 189.08279 192.43655 188.10028 193.12 187.14 193.12 C 186.65986 193.12 186.23934 192.96547 185.87 192.67 C 185.50066 192.37453 185.22467 191.93094 185.04 191.34 C 184.85533 190.71212 184.76 189.22377 184.76 186.86 L 184.76 166.75 C 184.76 161.17298 184.49707 157.60122 183.98 156.05 C 183.13052 153.61236 181.27084 151.3583 178.39 149.29 C 175.54609 147.18477 171.66221 146.14 166.75 146.14 z M 195.95 147.69 L 195.95 149.74 C 198.38764 149.88774 200.03052 150.47585 200.88 151.51 C 201.72948 152.50721 202.15 154.83355 202.15 158.49 L 202.15 188.74 C 202.15 192.39645 201.78868 194.65052 201.05 195.5 C 199.94198 196.75575 198.2399 197.41613 195.95 197.49 L 195.95 199.49 L 223.93 199.49 L 223.93 197.49 C 221.45543 197.34226 219.78948 196.77721 218.94 195.78 C 218.09052 194.74585 217.67 192.39645 217.67 188.74 L 217.67 147.69 L 195.95 147.69 z M 169.3 170.46 L 169.3 187.8 C 166.86236 189.8683 164.71669 190.9 162.87 190.9 C 161.20798 190.9 159.92335 190.39721 159 189.4 C 157.78118 188.10731 157.17 186.61896 157.17 184.92 C 157.17 182.88864 157.88958 180.87443 159.33 178.88 C 161.5091 175.88836 164.831 173.08231 169.3 170.46 z " />
</svg>
