<svg
   xmlns="http://www.w3.org/2000/svg" 
   width="16px"
   height="16px"
   viewBox="0,0,256,256"
   fill="currentColor">
  <path
     d="M 61.44 0 C 55.840017 0 51.2 4.6400168 51.2 10.24 L 51.2 20.48 L 20.48 20.48 C 14.539999 20.48 10.24 24.779999 10.24 30.72 L 10.24 66.56 L 245.76 66.56 L 245.76 30.72 C 245.76 24.779999 241.45999 20.48 235.52 20.48 L 204.8 20.48 L 204.8 10.24 C 204.8 4.6400168 200.15997 0 194.56 0 L 184.32 0 C 178.72003 0 174.08 4.6400168 174.08 10.24 L 174.08 20.48 L 81.92 20.48 L 81.92 10.24 C 81.92 4.6400168 77.279983 0 71.68 0 L 61.44 0 z M 61.44 10.24 L 71.68 10.24 L 71.68 40.96 L 61.44 40.96 L 61.44 10.24 z M 184.32 10.24 L 194.56 10.24 L 194.56 40.96 L 184.32 40.96 L 184.32 10.24 z M 10.24 76.8 L 10.24 235.52 C 10.24 241.43997 14.539999 245.76 20.48 245.76 L 235.52 245.76 C 241.43997 245.76 245.76 241.43997 245.76 235.52 L 245.76 76.8 L 10.24 76.8 z M 19.99 86.79 L 236.01 86.79 L 236.01 236.01 L 19.99 236.01 L 19.99 86.79 z M 68.42 122.98 L 68.42 125.03 L 71.57 125.03 C 73.675231 125.03 75.341182 125.40132 76.56 126.14 C 77.815752 126.84174 78.643727 127.66972 79.05 128.63 C 79.493207 129.59028 79.72 131.98888 79.72 135.83 L 79.72 176 C 79.72 183.82998 79.493207 188.61411 79.05 190.35 C 78.643727 192.04896 77.924149 193.29745 76.89 194.11 C 75.855851 194.92255 74.548157 195.33 72.96 195.33 C 70.707033 195.33 68.873488 194.81415 67.47 193.78 C 66.509719 193.07826 66.03 192.25028 66.03 191.29 C 66.03 190.66212 66.532785 189.60736 67.53 188.13 C 68.564149 186.61571 69.152264 185.67934 69.3 185.31 C 69.558537 184.53439 69.69 183.62415 69.69 182.59 C 69.69 180.48477 68.911223 178.71042 67.36 177.27 C 65.845711 175.82958 63.962967 175.11 61.71 175.11 C 59.420099 175.11 57.488157 175.92491 55.9 177.55 C 54.311843 179.13816 53.51 181.22463 53.51 183.81 C 53.51 187.83579 55.451942 191.50595 59.33 194.83 C 63.244991 198.15405 68.364306 199.82 74.68 199.82 C 79.850743 199.82 84.263546 198.7291 87.92 196.55 C 91.613388 194.33397 94.179579 191.60018 95.62 188.35 C 97.060421 185.06288 97.78 179.82211 97.78 172.62 L 97.78 135.83 C 97.78 132.06274 97.983727 129.73641 98.39 128.85 C 98.944008 127.59425 99.676653 126.70707 100.6 126.19 C 101.92962 125.41439 103.70397 125.03 105.92 125.03 L 108.36 125.03 L 108.36 122.98 L 68.42 122.98 z M 174.51 122.98 L 174.51 125.03 C 176.94764 125.17774 178.59052 125.76585 179.44 126.8 C 180.28948 127.79721 180.71 130.11048 180.71 133.73 L 180.71 187.36 C 180.71 191.01645 180.34868 193.26052 179.61 194.11 C 178.50198 195.36575 176.7999 196.03613 174.51 196.11 L 174.51 198.1 L 202.49 198.1 L 202.49 196.11 C 200.01543 195.96226 198.34948 195.38721 197.5 194.39 C 196.65052 193.35585 196.23 191.01645 196.23 187.36 L 196.23 122.98 L 174.51 122.98 z M 112.52 146.3 L 112.52 148.35 C 114.8099 148.64547 116.29826 149.27972 117 150.24 C 117.73868 151.20028 118.11 153.63501 118.11 157.55 L 118.11 178.1 C 118.11 184.08329 118.49439 188.2793 119.27 190.68 C 120.04561 193.0807 121.56703 195.18024 123.82 196.99 C 126.1099 198.76283 128.71222 199.65 131.63 199.65 C 134.69551 199.65 137.46543 198.98962 139.94 197.66 C 142.41457 196.29345 144.88543 194.13471 147.36 191.18 L 147.36 198.1 L 168.47 198.1 L 168.47 196.11 C 166.21703 195.85146 164.71868 195.24028 163.98 194.28 C 163.24132 193.28279 162.87 190.81193 162.87 186.86 L 162.87 146.3 L 141.77 146.3 L 141.77 148.35 C 144.0599 148.64547 145.54826 149.27972 146.25 150.24 C 146.98868 151.20028 147.36 153.63501 147.36 157.55 L 147.36 185.25 C 145.2917 188.16778 143.51736 190.10972 142.04 191.07 C 140.96892 191.77174 139.76962 192.12 138.44 192.12 C 137.44279 192.12 136.55561 191.84401 135.78 191.29 C 135.04132 190.73599 134.48934 189.92108 134.12 188.85 C 133.7876 187.77892 133.62 185.39339 133.62 181.7 L 133.62 146.3 L 112.52 146.3 z " />
</svg>
