<svg
   xmlns="http://www.w3.org/2000/svg" 
   width="16px"
   height="16px"
   viewBox="0,0,256,256"
   fill="currentColor">
  <path
     d="M 61.44 0 C 55.840011 0 51.2 4.6400112 51.2 10.24 L 51.2 20.48 L 20.48 20.48 C 14.539993 20.48 10.24 24.779993 10.24 30.72 L 10.24 66.56 L 245.76 66.56 L 245.76 30.72 C 245.76 24.779993 241.46 20.48 235.52 20.48 L 204.8 20.48 L 204.8 10.24 C 204.8 4.6400112 200.15998 0 194.56 0 L 184.32 0 C 178.72002 0 174.08 4.6400112 174.08 10.24 L 174.08 20.48 L 81.92 20.48 L 81.92 10.24 C 81.92 4.6400112 77.279989 0 71.68 0 L 61.44 0 z M 61.44 10.24 L 71.68 10.24 L 71.68 40.96 L 61.44 40.96 L 61.44 10.24 z M 184.32 10.24 L 194.56 10.24 L 194.56 40.96 L 184.32 40.96 L 184.32 10.24 z M 10.24 76.8 L 10.24 235.52 C 10.24 241.43998 14.539993 245.76 20.48 245.76 L 235.52 245.76 C 241.43998 245.76 245.76 241.43998 245.76 235.52 L 245.76 76.8 L 10.24 76.8 z M 200.26 109.4 C 203.49965 109.4 206.23717 110.53732 208.48 112.83 C 210.72283 115.07283 211.84 117.79019 211.84 120.98 C 211.84 124.16981 210.70268 126.88717 208.41 129.13 C 206.16717 131.37283 203.44981 132.5 200.26 132.5 C 197.07019 132.5 194.35283 131.37283 192.11 129.13 C 189.86717 126.88717 188.74 124.16981 188.74 120.98 C 188.74 117.79019 189.86717 115.07283 192.11 112.83 C 194.35283 110.53732 197.07019 109.4 200.26 109.4 z M 36.83 111.79 L 78.25 111.79 L 106.73 178.62 L 134.24 111.79 L 175.51 111.79 L 175.51 114.55 L 172.22 114.55 C 169.22955 114.55 166.83427 115.07334 165.04 116.12 C 163.79398 116.81777 162.79761 117.99525 162.05 119.64 C 161.50175 120.83618 161.23 123.94608 161.23 128.98 L 161.23 195.82 C 161.23 201.00344 161.50175 204.24414 162.05 205.54 C 162.59825 206.83586 163.72541 207.98318 165.42 208.98 C 167.11459 209.92697 169.37908 210.4 172.22 210.4 L 175.51 210.4 L 175.51 213.16 L 122.58 213.16 L 122.58 210.4 L 125.87 210.4 C 128.86045 210.4 131.25573 209.87666 133.05 208.83 C 134.29602 208.13223 135.29239 206.93459 136.04 205.24 C 136.58825 204.04382 136.86 200.90376 136.86 195.82 L 136.86 120.68 L 97.98 213.16 L 96.19 213.16 L 56.72 121.36 L 56.72 192.75 C 56.72 197.73408 56.840796 200.80366 57.09 201.95 C 57.73793 204.44204 59.136847 206.4851 61.28 208.08 C 63.472994 209.62506 66.884809 210.4 71.52 210.4 L 71.52 213.16 L 36.83 213.16 L 36.83 210.4 L 37.88 210.4 C 40.122835 210.44984 42.21621 210.09761 44.16 209.35 C 46.10379 208.55255 47.573185 207.50586 48.57 206.21 C 49.566815 204.91414 50.331752 203.09252 50.88 200.75 C 50.979682 200.20175 51.03 197.66551 51.03 193.13 L 51.03 128.98 C 51.03 123.8464 50.758248 120.65602 50.21 119.41 C 49.661752 118.11414 48.544586 116.99697 46.85 116.05 C 45.155414 115.05318 42.880924 114.55 40.04 114.55 L 36.83 114.55 L 36.83 111.79 z M 181.42 143.26 L 210.72 143.26 L 210.72 198.66 C 210.72 203.59424 211.29366 206.76446 212.44 208.16 C 213.58634 209.5057 215.83067 210.27064 219.17 210.47 L 219.17 213.16 L 181.42 213.16 L 181.42 210.47 C 184.51013 210.37032 186.79478 209.47459 188.29 207.78 C 189.28682 206.63366 189.79 203.59424 189.79 198.66 L 189.79 157.84 C 189.79 152.90576 189.21634 149.7657 188.07 148.42 C 186.92366 147.02446 184.70949 146.22936 181.42 146.03 L 181.42 143.26 z " />
</svg>
