<svg
   xmlns="http://www.w3.org/2000/svg" 
   width="16px"
   height="16px"
   viewBox="0,0,256,256"
   fill="currentColor">
  <path
     d="M 61.44 0 C 55.840017 0 51.2 4.6400168 51.2 10.24 L 51.2 20.48 L 20.48 20.48 C 14.539999 20.48 10.24 24.779999 10.24 30.72 L 10.24 66.56 L 245.76 66.56 L 245.76 30.72 C 245.76 24.779999 241.45999 20.48 235.52 20.48 L 204.8 20.48 L 204.8 10.24 C 204.8 4.6400168 200.15997 0 194.56 0 L 184.32 0 C 178.72003 0 174.08 4.6400168 174.08 10.24 L 174.08 20.48 L 81.92 20.48 L 81.92 10.24 C 81.92 4.6400168 77.279983 0 71.68 0 L 61.44 0 z M 61.44 10.24 L 71.68 10.24 L 71.68 40.96 L 61.44 40.96 L 61.44 10.24 z M 184.32 10.24 L 194.56 10.24 L 194.56 40.96 L 184.32 40.96 L 184.32 10.24 z M 10.24 76.8 L 10.24 235.52 C 10.24 241.43997 14.539999 245.76 20.48 245.76 L 235.52 245.76 C 241.43997 245.76 245.76 241.43997 245.76 235.52 L 245.76 76.8 L 10.24 76.8 z M 19.99 86.79 L 236.01 86.79 L 236.01 236.01 L 19.99 236.01 L 19.99 86.79 z M 71.55 110.93 L 44.68 170.87 C 42.131562 176.59475 39.985892 180.38331 38.25 182.23 C 36.514108 184.03976 34.296173 185.14373 31.6 185.55 L 31.6 187.6 L 56.59 187.6 L 56.59 185.55 C 52.675009 185.25453 50.217215 184.81094 49.22 184.22 C 47.521041 183.22279 46.67 181.67523 46.67 179.57 C 46.67 177.98184 47.185851 175.96764 48.22 173.53 L 51.38 166.22 L 77.92 166.22 L 81.91 175.58 C 82.944149 178.01764 83.496132 179.4076 83.57 179.74 C 83.791603 180.44174 83.9 181.12519 83.9 181.79 C 83.9 182.89802 83.492545 183.74906 82.68 184.34 C 81.498116 185.15255 79.447777 185.55 76.53 185.55 L 75.04 185.55 L 75.04 187.6 L 111.38 187.6 L 111.38 185.55 C 109.0901 185.36533 107.31575 184.70495 106.06 183.56 C 104.39798 182.04571 102.27537 178.37555 99.69 172.54 L 72.6 110.93 L 71.55 110.93 z M 150.88 134.25 C 147.70369 134.25 144.76617 135.12411 142.07 136.86 C 140.18637 138.04188 138.33976 139.96076 136.53 142.62 L 136.53 135.8 L 114.81 135.8 L 114.81 137.85 C 117.24764 137.99774 118.90052 138.59585 119.75 139.63 C 120.59948 140.62721 121.02 142.95355 121.02 146.61 L 121.02 201.29 C 121.02 204.83565 120.64868 207.03052 119.91 207.88 C 118.80198 209.09882 117.0999 209.74613 114.81 209.82 L 114.81 211.87 L 144.34 211.87 L 144.34 209.82 C 141.75463 209.82 140.02641 209.60321 139.14 209.16 C 138.25359 208.71679 137.58321 208.01028 137.14 207.05 C 136.73373 206.08972 136.53 204.27924 136.53 201.62 L 136.53 182.34 C 138.56136 184.66683 140.50331 186.30972 142.35 187.27 C 144.82457 188.52575 147.48609 189.16 150.33 189.16 C 154.24499 189.16 157.78369 188.03297 160.96 185.78 C 164.17325 183.4901 166.61798 180.18126 168.28 175.86 C 169.97896 171.5018 170.82 166.70461 170.82 161.46 C 170.82 156.58473 170.01509 152.04046 168.39 147.83 C 166.76491 143.5826 164.37938 140.2507 161.24 137.85 C 158.13755 135.4493 154.68419 134.25 150.88 134.25 z M 217.58 134.25 C 215.1793 134.25 212.68537 135.13717 210.1 136.91 C 207.51463 138.64589 204.50485 142.19459 201.07 147.55 L 201.07 135.8 L 179.91 135.8 L 179.91 137.85 C 181.68283 138.03467 182.91826 138.36986 183.62 138.85 C 184.32174 139.33014 184.86066 140.08585 185.23 141.12 C 185.52547 141.93255 185.67 143.81529 185.67 146.77 L 185.67 175.42 C 185.67 179.92593 185.26255 182.70892 184.45 183.78 C 183.67439 184.81415 182.16297 185.42533 179.91 185.61 L 179.91 187.6 L 207.89 187.6 L 207.89 185.61 C 205.8217 185.4992 204.34641 185.22321 203.46 184.78 C 202.61052 184.29986 201.96321 183.55721 201.52 182.56 C 201.26146 181.96906 201.13 180.62523 201.13 178.52 L 201.07 175.42 L 201.07 163.5 C 201.07 159.17874 201.66812 155.23259 202.85 151.65 C 203.62561 149.32317 204.76571 147.53575 206.28 146.28 C 207.24028 145.46745 208.25892 145.06 209.33 145.06 C 209.81014 145.06 210.23066 145.1684 210.6 145.39 C 210.85854 145.53774 211.70958 146.23425 213.15 147.49 C 214.59042 148.74575 216.2925 149.38 218.25 149.38 C 219.94896 149.38 221.38812 148.69655 222.57 147.33 C 223.78882 145.96345 224.4 144.04457 224.4 141.57 C 224.4 139.24317 223.76575 137.44575 222.51 136.19 C 221.29118 134.89731 219.6483 134.25 217.58 134.25 z M 64.84 136.25 L 76.03 162.12 L 53.32 162.12 L 64.84 136.25 z M 145.73 141.01 C 148.09377 141.01 149.97651 142.1009 151.38 144.28 C 153.48523 147.56712 154.54 153.682 154.54 162.62 C 154.54 171.3364 153.58056 177.24755 151.66 180.35 C 150.36731 182.45523 148.72443 183.5 146.73 183.5 C 143.11048 183.5 139.70631 181.25593 136.53 176.75 L 136.53 149.1 C 138.9307 143.70765 141.99968 141.01 145.73 141.01 z " />
</svg>
