<svg
   xmlns="http://www.w3.org/2000/svg" 
   width="16px"
   height="16px"
   viewBox="0,0,256,256"
   fill="currentColor">
  <path
     d="M 61.44 0 C 55.840017 0 51.2 4.6400168 51.2 10.24 L 51.2 20.48 L 20.48 20.48 C 14.539999 20.48 10.24 24.779999 10.24 30.72 L 10.24 66.56 L 245.76 66.56 L 245.76 30.72 C 245.76 24.779999 241.45999 20.48 235.52 20.48 L 204.8 20.48 L 204.8 10.24 C 204.8 4.6400168 200.15997 0 194.56 0 L 184.32 0 C 178.72003 0 174.08 4.6400168 174.08 10.24 L 174.08 20.48 L 81.92 20.48 L 81.92 10.24 C 81.92 4.6400168 77.279983 0 71.68 0 L 61.44 0 z M 61.44 10.24 L 71.68 10.24 L 71.68 40.96 L 61.44 40.96 L 61.44 10.24 z M 184.32 10.24 L 194.56 10.24 L 194.56 40.96 L 184.32 40.96 L 184.32 10.24 z M 10.24 76.8 L 10.24 235.52 C 10.24 241.43997 14.539999 245.76 20.48 245.76 L 235.52 245.76 C 241.43997 245.76 245.76 241.43997 245.76 235.52 L 245.76 76.8 L 10.24 76.8 z M 19.99 86.79 L 236.01 86.79 L 236.01 236.01 L 19.99 236.01 L 19.99 86.79 z M 40.33 123.06 L 40.33 125.11 L 42.82 125.11 C 44.925231 125.11 46.591182 125.48132 47.81 126.22 C 49.065752 126.92174 49.893728 127.74971 50.3 128.71 C 50.706273 129.67028 50.91 132.07888 50.91 135.92 L 50.91 185.33 C 50.91 189.09726 50.706273 191.42358 50.3 192.31 C 49.782926 193.56575 49.040281 194.45293 48.08 194.97 C 46.750381 195.74561 44.999099 196.14 42.82 196.14 L 40.33 196.14 L 40.33 198.19 L 79.61 198.19 L 79.61 196.14 L 77.11 196.14 C 75.004769 196.14 73.325751 195.78175 72.07 195.08 C 70.851182 194.34132 70.023207 193.50028 69.58 192.54 C 69.173727 191.57972 68.97 189.17113 68.97 185.33 L 68.97 162.34 L 71.13 162.34 C 75.081925 162.34 78.607554 163.4901 81.71 165.78 C 84.84938 168.03297 86.768256 172.72176 87.47 179.85 L 89.41 179.85 L 89.41 142.12 L 87.47 142.12 C 87.026793 146.1458 86.067355 149.33624 84.59 151.7 C 83.149579 154.06377 81.375231 155.75279 79.27 156.75 C 77.164769 157.74722 74.454049 158.24 71.13 158.24 L 68.97 158.24 L 68.97 127.38 L 75.95 127.38 C 81.933289 127.38 86.033967 127.65599 88.25 128.21 C 92.275793 129.20721 95.344769 130.93236 97.45 133.37 C 99.592163 135.80764 100.92292 139.55006 101.44 144.61 L 103.71 144.61 L 103.71 123.06 L 40.33 123.06 z M 159.83 123.06 L 159.83 125.11 C 161.71362 125.18387 163.04439 125.48293 163.82 126 C 164.63255 126.48015 165.22066 127.23585 165.59 128.27 C 165.84854 128.97175 165.98 130.81836 165.98 133.81 L 165.98 199.68 L 167.86 199.68 L 176.45 194.09 C 178.55523 196.08443 180.6909 197.52359 182.87 198.41 C 185.0491 199.29641 187.54303 199.74 190.35 199.74 C 195.18834 199.74 199.49274 198.5407 203.26 196.14 C 207.02726 193.70236 210.03704 190.16674 212.29 185.55 C 214.54296 180.93326 215.67 175.80089 215.67 170.15 C 215.67 165.12699 214.78282 160.70112 213.01 156.86 C 211.23718 153.01888 208.77938 150.0583 205.64 147.99 C 202.50062 145.88477 199.16565 144.83 195.62 144.83 C 190.44925 144.83 185.6782 147.08406 181.32 151.59 L 181.32 123.06 L 159.83 123.06 z M 134.9 144.83 C 128.62124 144.83 123.1306 147.40619 118.44 152.54 C 113.78633 157.63688 111.46 164.49748 111.46 173.14 C 111.46 180.19437 113.05368 186.10553 116.23 190.87 C 120.18192 196.77942 125.99775 199.74 133.68 199.74 C 138.149 199.74 142.08208 198.55376 145.48 196.19 C 148.87792 193.7893 151.98302 189.72475 154.79 184 L 152.9 182.78 C 150.8317 185.99325 148.89976 188.23425 147.09 189.49 C 145.28024 190.70882 143.26603 191.32 141.05 191.32 C 137.46742 191.32 134.39844 189.78551 131.85 186.72 C 128.52595 182.73114 126.70241 177.2997 126.37 170.43 L 154.79 170.43 C 154.49453 161.97214 152.40806 155.60433 148.53 151.32 C 144.68888 146.99873 140.14461 144.83 134.9 144.83 z M 134.07 148.44 C 135.36269 148.44 136.39439 148.76519 137.17 149.43 C 138.53655 150.57495 139.53212 152.25396 140.16 154.47 C 140.82481 156.68603 141.16 160.77365 141.16 166.72 L 126.09 166.72 L 126.09 164.78 C 126.09 159.05525 127.1809 154.54712 129.36 151.26 C 130.57881 149.37638 132.14944 148.44 134.07 148.44 z M 190.46 151.15 C 192.89764 151.15 194.83957 152.21784 196.28 154.36 C 198.27442 157.31471 199.27 162.76921 199.27 170.71 C 199.27 178.98319 198.81335 184.70368 197.89 187.88 C 197.00359 191.05631 195.87655 193.17891 194.51 194.25 C 193.18038 195.32108 191.57363 195.86 189.69 195.86 C 187.5109 195.86 185.71349 195.18962 184.31 193.86 C 182.90651 192.49345 182.02934 190.7291 181.66 188.55 C 181.4384 187.25731 181.32 184.2606 181.32 179.57 L 181.32 156.52 C 184.23778 152.93741 187.28369 151.15 190.46 151.15 z " />
</svg>
