<svg
   xmlns="http://www.w3.org/2000/svg" 
   width="16px"
   height="16px"
   viewBox="0,0,256,256"
   fill="currentColor">
  <path
     d="M 5.12 20.48 C 2.2886456 20.48 0 22.773766 0 25.6 L 0 230.4 C 0 233.22624 2.2886456 235.52 5.12 235.52 L 250.88 235.52 C 253.71136 235.52 256 233.22624 256 230.4 L 256 25.6 C 256 22.773766 253.71136 20.48 250.88 20.48 L 5.12 20.48 z M 40.96 30.72 L 51.2 30.72 L 51.2 61.44 L 40.96 61.44 L 40.96 30.72 z M 81.92 30.72 L 92.16 30.72 L 92.16 61.44 L 81.92 61.44 L 81.92 30.72 z M 122.88 30.72 L 133.12 30.72 L 133.12 61.44 L 122.88 61.44 L 122.88 30.72 z M 163.84 30.72 L 174.08 30.72 L 174.08 61.44 L 163.84 61.44 L 163.84 30.72 z M 204.8 30.72 L 215.04 30.72 L 215.04 61.44 L 204.8 61.44 L 204.8 30.72 z M 10.24 71.68 L 245.76 71.68 L 245.76 72.02 L 245.76 112.98 L 245.76 122.77 L 245.76 132.87 L 245.76 136.6 L 245.76 153.6 L 245.76 178.67 L 245.76 184.32 L 245.76 225.28 L 10.24 225.28 L 10.24 184.32 L 10.24 157.19 L 10.24 132.87 L 10.24 120.35 L 10.24 118.61 L 10.24 112.98 L 10.24 79.39 L 10.24 72.02 L 10.24 71.68 z M -30.74 72.02 L -30.74 116.23 L -30.72 116.23 L -30.72 79.39 L -30.72 72.02 L -30.74 72.02 z M 204.8 72.02 L 204.8 87.04 L 204.8 107.52 L 204.8 116.23 L 204.82 116.23 L 204.82 107.73 C 204.93273 110.45792 207.16438 112.64 209.92 112.64 C 212.74767 112.64 215.04 110.34767 215.04 107.52 C 215.04 104.69233 212.74767 102.4 209.92 102.4 C 207.16438 102.4 204.93273 104.58208 204.82 107.31 L 204.82 87.25 C 204.93273 89.977899 207.16438 92.16 209.92 92.16 C 212.74767 92.16 215.04 89.867647 215.04 87.04 C 215.04 84.212353 212.74767 81.92 209.92 81.92 C 207.16438 81.92 204.93273 84.102101 204.82 86.83 L 204.82 72.02 L 204.8 72.02 z M 46.08 81.92 C 43.252362 81.92 40.96 84.212362 40.96 87.04 C 40.96 89.867638 43.252362 92.16 46.08 92.16 C 48.907638 92.16 51.2 89.867638 51.2 87.04 C 51.2 84.212362 48.907638 81.92 46.08 81.92 z M 87.04 81.92 C 86.686544 81.92 86.343296 81.9518 86.01 82.02 C 83.676923 82.49743 81.92 84.565816 81.92 87.04 C 81.92 89.867638 84.212342 92.16 87.04 92.16 C 89.867647 92.16 92.16 89.867647 92.16 87.04 C 92.16 84.212353 89.867647 81.92 87.04 81.92 z M 128 81.92 C 127.64654 81.92 127.3033 81.9518 126.97 82.02 C 124.63692 82.49743 122.88 84.565816 122.88 87.04 C 122.88 89.867638 125.17233 92.16 128 92.16 C 130.82767 92.16 133.12 89.867647 133.12 87.04 C 133.12 84.212353 130.82767 81.92 128 81.92 z M 168.96 81.92 C 168.60654 81.92 168.2633 81.9518 167.93 82.02 C 165.59692 82.49743 163.84 84.565816 163.84 87.04 C 163.84 89.867638 166.13233 92.16 168.96 92.16 C 171.78767 92.16 174.08 89.867647 174.08 87.04 C 174.08 84.212353 171.78767 81.92 168.96 81.92 z M 46.08 102.4 C 43.252362 102.4 40.96 104.69233 40.96 107.52 C 40.96 110.34767 43.252362 112.64 46.08 112.64 C 48.907638 112.64 51.2 110.34767 51.2 107.52 C 51.2 104.69233 48.907638 102.4 46.08 102.4 z M 87.04 102.4 C 86.686544 102.4 86.343296 102.4318 86.01 102.5 C 83.676923 102.97743 81.92 105.04579 81.92 107.52 C 81.92 110.34767 84.212342 112.64 87.04 112.64 C 89.867647 112.64 92.16 110.34767 92.16 107.52 C 92.16 104.69233 89.867647 102.4 87.04 102.4 z M 128 102.4 C 127.64654 102.4 127.3033 102.4318 126.97 102.5 C 124.63692 102.97743 122.88 105.04579 122.88 107.52 C 122.88 110.34767 125.17233 112.64 128 112.64 C 130.82767 112.64 133.12 110.34767 133.12 107.52 C 133.12 104.69233 130.82767 102.4 128 102.4 z M 168.96 102.4 C 168.60654 102.4 168.2633 102.4318 167.93 102.5 C 165.59692 102.97743 163.84 105.04579 163.84 107.52 C 163.84 110.34767 166.13233 112.64 168.96 112.64 C 171.78767 112.64 174.08 110.34767 174.08 107.52 C 174.08 104.69233 171.78767 102.4 168.96 102.4 z M 46.08 122.88 C 43.252353 122.88 40.96 125.17233 40.96 128 C 40.96 130.82767 43.252353 133.12 46.08 133.12 C 48.907647 133.12 51.2 130.82767 51.2 128 C 51.2 125.17233 48.907647 122.88 46.08 122.88 z M 87.04 122.88 C 84.212362 122.88 81.92 125.17235 81.92 128 C 81.92 130.82765 84.212362 133.12 87.04 133.12 C 89.867638 133.12 92.16 130.82765 92.16 128 C 92.16 125.17235 89.867638 122.88 87.04 122.88 z M 128 122.88 C 125.17233 122.88 122.88 125.17235 122.88 128 C 122.88 130.82765 125.17233 133.12 128 133.12 C 130.82767 133.12 133.12 130.82765 133.12 128 C 133.12 125.17235 130.82767 122.88 128 122.88 z M 168.96 122.88 C 166.13233 122.88 163.84 125.17235 163.84 128 C 163.84 130.82765 166.13233 133.12 168.96 133.12 C 171.78767 133.12 174.08 130.82765 174.08 128 C 174.08 125.17235 171.78767 122.88 168.96 122.88 z M 209.92 122.88 C 207.09233 122.88 204.8 125.17235 204.8 128 C 204.8 130.82765 207.09233 133.12 209.92 133.12 C 212.74767 133.12 215.04 130.82765 215.04 128 C 215.04 125.17235 212.74767 122.88 209.92 122.88 z M 133.1 133.46 L 133.1 143.36 L 128 143.36 L 87.04 143.36 L 46.08 143.36 L 25.6 143.36 C 22.768667 143.36 20.48 145.65376 20.48 148.48 L 20.48 168.96 C 20.48 171.78624 22.768667 174.08 25.6 174.08 L 46.08 174.08 L 87.04 174.08 L 128 174.08 L 133.1 174.08 L 133.1 178.39 L 133.12 178.39 L 133.12 174.08 L 168.96 174.08 C 168.99433 174.08 169.02583 174.07067 169.06 174.07 L 174.06 174.08 L 174.06 178.39 L 174.08 178.39 L 174.08 174.08 L 189.41 174.1 C 189.5796 174.1 189.74258 174.0667 189.91 174.05 L 209.82 174.07 C 209.85417 174.07067 209.88567 174.08 209.92 174.08 C 209.95433 174.08 209.98583 174.07067 210.02 174.07 L 230.37 174.1 C 231.72679 174.1 233.03257 173.55744 233.99 172.6 C 234.95255 171.63744 235.49 170.3368 235.49 168.98 L 235.51 148.5 C 235.515 145.67378 233.23134 143.38512 230.4 143.38 L 209.92 143.36 L 189.45 143.33 C 189.28376 143.33 189.12416 143.3642 188.96 143.38 L 174.08 143.36 L 174.08 133.46 L 174.06 133.46 L 174.06 143.36 L 168.96 143.36 L 148.49 143.33 C 148.38824 143.33 148.29106 143.354 148.19 143.36 L 133.12 143.36 L 133.12 133.46 L 133.1 133.46 z M 368.64 133.46 L 368.64 178.39 L 368.66 178.39 L 368.66 133.46 L 368.64 133.46 z M 409.6 133.46 L 409.6 178.39 L 409.62 178.39 L 409.62 133.46 L 409.6 133.46 z M -30.74 174.42 L -30.74 218.63 L -30.72 218.63 L -30.72 181.79 L -30.72 174.42 L -30.74 174.42 z M 204.8 174.42 L 204.8 189.44 L 204.8 209.92 L 204.8 218.63 L 204.82 218.63 L 204.82 210.13 C 204.93273 212.85792 207.16438 215.04 209.92 215.04 C 212.74767 215.04 215.04 212.74767 215.04 209.92 C 215.04 207.09233 212.74767 204.8 209.92 204.8 C 207.16438 204.8 204.93273 206.98208 204.82 209.71 L 204.82 189.65 C 204.93273 192.37792 207.16438 194.56 209.92 194.56 C 212.74767 194.56 215.04 192.26767 215.04 189.44 C 215.04 186.61233 212.74767 184.32 209.92 184.32 C 207.16438 184.32 204.93273 186.50208 204.82 189.23 L 204.82 174.42 L 204.8 174.42 z M 46.08 184.32 C 43.252359 184.32 40.96 186.61235 40.96 189.44 C 40.96 192.26765 43.252359 194.56 46.08 194.56 C 48.907641 194.56 51.2 192.26765 51.2 189.44 C 51.2 186.61235 48.907641 184.32 46.08 184.32 z M 87.04 184.32 C 84.212339 184.32 81.92 186.61235 81.92 189.44 C 81.92 192.26765 84.212339 194.56 87.04 194.56 C 89.867661 194.56 92.16 192.26765 92.16 189.44 C 92.16 186.61235 89.867661 184.32 87.04 184.32 z M 128 184.32 C 125.17233 184.32 122.88 186.61235 122.88 189.44 C 122.88 192.26765 125.17233 194.56 128 194.56 C 130.82767 194.56 133.12 192.26765 133.12 189.44 C 133.12 186.61235 130.82767 184.32 128 184.32 z M 168.96 184.32 C 166.13233 184.32 163.84 186.61235 163.84 189.44 C 163.84 192.26765 166.13233 194.56 168.96 194.56 C 171.78767 194.56 174.08 192.26765 174.08 189.44 C 174.08 186.61235 171.78767 184.32 168.96 184.32 z M 46.08 204.8 C 43.252359 204.8 40.96 207.09233 40.96 209.92 C 40.96 212.74767 43.252359 215.04 46.08 215.04 C 48.907641 215.04 51.2 212.74767 51.2 209.92 C 51.2 207.09233 48.907641 204.8 46.08 204.8 z M 87.04 204.8 C 84.212339 204.8 81.92 207.09233 81.92 209.92 C 81.92 212.74767 84.212339 215.04 87.04 215.04 C 89.867661 215.04 92.16 212.74767 92.16 209.92 C 92.16 207.09233 89.867661 204.8 87.04 204.8 z M 128 204.8 C 125.17233 204.8 122.88 207.09233 122.88 209.92 C 122.88 212.74767 125.17233 215.04 128 215.04 C 130.82767 215.04 133.12 212.74767 133.12 209.92 C 133.12 207.09233 130.82767 204.8 128 204.8 z M 168.96 204.8 C 166.13233 204.8 163.84 207.09233 163.84 209.92 C 163.84 212.74767 166.13233 215.04 168.96 215.04 C 171.78767 215.04 174.08 212.74767 174.08 209.92 C 174.08 207.09233 171.78767 204.8 168.96 204.8 z " />
</svg>
