<svg
   xmlns="http://www.w3.org/2000/svg" 
   width="16px"
   height="16px"
   viewBox="0,0,256,256"
   fill="currentColor">
  <path
     d="M 61.44 0 C 55.840017 0 51.2 4.6400168 51.2 10.24 L 51.2 20.48 L 20.48 20.48 C 14.539999 20.48 10.24 24.779999 10.24 30.72 L 10.24 66.56 L 245.76 66.56 L 245.76 30.72 C 245.76 24.779999 241.45999 20.48 235.52 20.48 L 204.8 20.48 L 204.8 10.24 C 204.8 4.6400168 200.15997 0 194.56 0 L 184.32 0 C 178.72003 0 174.08 4.6400168 174.08 10.24 L 174.08 20.48 L 81.92 20.48 L 81.92 10.24 C 81.92 4.6400168 77.279983 0 71.68 0 L 61.44 0 z M 61.44 10.24 L 71.68 10.24 L 71.68 40.96 L 61.44 40.96 L 61.44 10.24 z M 184.32 10.24 L 194.56 10.24 L 194.56 40.96 L 184.32 40.96 L 184.32 10.24 z M 10.24 76.8 L 10.24 235.52 C 10.24 241.43997 14.539999 245.76 20.48 245.76 L 235.52 245.76 C 241.43997 245.76 245.76 241.43997 245.76 235.52 L 245.76 76.8 L 10.24 76.8 z M 19.99 86.79 L 236.01 86.79 L 236.01 236.01 L 19.99 236.01 L 19.99 86.79 z M 38.33 123.06 L 38.33 125.11 L 40.83 125.11 C 42.935231 125.11 44.591182 125.48132 45.81 126.22 C 47.065752 126.92174 47.903727 127.74972 48.31 128.71 C 48.716273 129.67028 48.92 132.07888 48.92 135.92 L 48.92 185.33 C 48.92 189.20806 48.752405 191.53439 48.42 192.31 C 47.865992 193.49188 46.991884 194.43826 45.81 195.14 C 44.66505 195.80481 43.009099 196.14 40.83 196.14 L 38.33 196.14 L 38.33 198.19 L 71.96 198.19 C 76.798339 198.19 80.347033 197.96321 82.6 197.52 C 87.696876 196.55972 92.001281 195.21589 95.51 193.48 C 99.055653 191.70717 102.17383 189.38084 104.87 186.5 C 107.56617 183.58222 109.76104 179.90207 111.46 175.47 C 113.15896 171.001 114.01 166.13155 114.01 160.85 C 114.01 153.20469 112.27178 146.34716 108.8 140.29 C 105.36515 134.23284 100.30503 129.71164 93.62 126.72 C 88.153785 124.28236 80.934933 123.06 71.96 123.06 L 38.33 123.06 z M 66.98 127.33 C 73.147958 127.29307 77.560761 127.84505 80.22 128.99 C 83.987256 130.61509 87.069298 133.68407 89.47 138.19 C 92.498578 143.95169 94.01 151.65026 94.01 161.29 C 94.01 173.25658 91.792066 182.08218 87.36 187.77 C 84.109818 191.98046 79.407958 194.09 73.24 194.09 C 71.356372 194.09 69.907215 193.81401 68.91 193.26 C 68.208256 192.89066 67.715471 192.35174 67.42 191.65 C 67.124529 190.94826 66.98 189.04245 66.98 185.94 L 66.98 127.33 z M 146.59 144.83 C 140.31124 144.83 134.8206 147.40619 130.13 152.54 C 125.47633 157.63688 123.15 164.49747 123.15 173.14 C 123.15 180.19437 124.74369 186.10553 127.92 190.87 C 131.87193 196.77942 137.68775 199.74 145.37 199.74 C 149.839 199.74 153.77208 198.55377 157.17 196.19 C 160.56792 193.7893 163.67302 189.72475 166.48 184 L 164.59 182.78 C 162.5217 185.99325 160.58976 188.23425 158.78 189.49 C 156.97024 190.70882 154.95603 191.32 152.74 191.32 C 149.15741 191.32 146.08844 189.78551 143.54 186.72 C 140.21595 182.73114 138.3924 177.2997 138.06 170.43 L 166.48 170.43 C 166.18453 161.97214 164.09806 155.60433 160.22 151.32 C 156.37888 146.99874 151.83461 144.83 146.59 144.83 z M 174.07 146.39 L 174.07 161.46 L 176 161.46 C 177.03415 157.80355 178.03972 155.27349 179 153.87 C 179.96028 152.42958 181.20878 151.38788 182.76 150.76 C 184.31122 150.09519 186.87741 149.77 190.46 149.77 L 198.77 149.77 L 170.3 196.97 L 170.3 198.19 L 215.39 198.19 L 216.95 180.46 L 215.39 180.46 C 213.80184 185.85235 211.43938 189.55864 208.3 191.59 C 205.16062 193.62136 200.05131 194.64 192.96 194.64 L 189.41 194.64 L 217.67 147.88 L 217.67 146.39 L 174.07 146.39 z M 145.76 148.44 C 147.05269 148.44 148.08439 148.76519 148.86 149.43 C 150.22655 150.57495 151.22212 152.25397 151.85 154.47 C 152.51481 156.68603 152.85 160.77365 152.85 166.72 L 137.78 166.72 L 137.78 164.78 C 137.78 159.05525 138.8709 154.54712 141.05 151.26 C 142.26882 149.37637 143.83944 148.44 145.76 148.44 z " />
</svg>
