<svg
   xmlns="http://www.w3.org/2000/svg" 
   width="16px"
   height="16px"
   viewBox="0,0,256,256"
   fill="currentColor">
  <path
     d="M 61.44 0 C 55.840011 0 51.2 4.6400112 51.2 10.24 L 51.2 20.48 L 20.48 20.48 C 14.539993 20.48 10.24 24.779993 10.24 30.72 L 10.24 66.56 L 245.76 66.56 L 245.76 30.72 C 245.76 24.779993 241.46 20.48 235.52 20.48 L 204.8 20.48 L 204.8 10.24 C 204.8 4.6400112 200.15998 0 194.56 0 L 184.32 0 C 178.72002 0 174.08 4.6400112 174.08 10.24 L 174.08 20.48 L 81.92 20.48 L 81.92 10.24 C 81.92 4.6400112 77.279989 0 71.68 0 L 61.44 0 z M 61.44 10.24 L 71.68 10.24 L 71.68 40.96 L 61.44 40.96 L 61.44 10.24 z M 184.32 10.24 L 194.56 10.24 L 194.56 40.96 L 184.32 40.96 L 184.32 10.24 z M 10.24 76.8 L 10.24 235.52 C 10.24 241.43998 14.539993 245.76 20.48 245.76 L 235.52 245.76 C 241.43998 245.76 245.76 241.43998 245.76 235.52 L 245.76 76.8 L 10.24 76.8 z M 38.17 109.55 L 83.55 109.55 C 95.661307 109.55 105.41357 111.19051 112.79 114.48 C 121.81118 118.5171 128.63481 124.62611 133.27 132.8 C 137.95503 140.97389 140.3 150.21296 140.3 160.53 C 140.3 167.65723 139.15268 174.23927 136.86 180.27 C 134.56732 186.25089 131.59838 191.21258 127.96 195.15 C 124.32162 199.03758 120.11471 202.17764 115.33 204.57 C 110.59513 206.91252 104.78803 208.72414 97.91 210.02 C 94.869713 210.61809 90.079141 210.92 83.55 210.92 L 38.17 210.92 L 38.17 208.16 L 41.54 208.16 C 44.480605 208.16 46.724936 207.70713 48.27 206.81 C 49.864905 205.86303 51.032388 204.5949 51.78 203 C 52.228567 201.95334 52.45 198.81328 52.45 193.58 L 52.45 126.89 C 52.45 121.70656 52.178248 118.46586 51.63 117.17 C 51.081752 115.87414 49.964586 114.75697 48.27 113.81 C 46.625255 112.81318 44.380924 112.31 41.54 112.31 L 38.17 112.31 L 38.17 109.55 z M 76.83 115.3 L 76.83 194.4 C 76.83 198.58662 77.021274 201.15303 77.42 202.1 C 77.818726 203.04697 78.493025 203.77159 79.44 204.27 C 80.785701 205.01761 82.728121 205.39 85.27 205.39 C 93.593408 205.39 99.954012 202.55185 104.34 196.87 C 110.32089 189.19452 113.31 177.27841 113.31 161.13 C 113.31 148.12156 111.26694 137.73516 107.18 129.96 C 103.94035 123.87943 99.773758 119.73299 94.69 117.54 C 91.101465 115.99494 85.153408 115.25016 76.83 115.3 z M 184.86 138.93 C 190.94057 138.93 196.59672 140.50003 201.83 143.64 C 207.06328 146.77997 211.0186 151.23847 213.71 157.02 C 216.45124 162.80153 217.83 169.13197 217.83 176.01 C 217.83 185.92831 215.30392 194.22134 210.27 200.9 C 204.18943 208.9742 195.79577 213.01 185.08 213.01 C 174.5636 213.01 166.46185 209.32643 160.78 201.95 C 155.09815 194.57357 152.26 186.02895 152.26 176.31 C 152.26 166.29201 155.14847 157.56627 160.93 150.14 C 166.76137 142.66388 174.74232 138.93 184.86 138.93 z M 185.15 144.23 C 182.60812 144.23 180.42411 145.20621 178.58 147.15 C 176.78573 149.04395 175.58809 152.82815 174.99 158.51 C 174.44175 164.14201 174.17 171.99216 174.17 182.06 C 174.17 187.39296 174.51223 192.38481 175.21 197.02 C 175.75825 200.55869 176.93573 203.24589 178.73 205.09 C 180.52427 206.93411 182.56732 207.86 184.86 207.86 C 187.10283 207.86 188.96478 207.23602 190.46 205.99 C 192.40379 204.29541 193.70207 201.92029 194.35 198.88 C 195.34682 194.14513 195.85 184.58398 195.85 170.18 C 195.85 161.70707 195.37697 155.89997 194.43 152.76 C 193.48303 149.57019 192.08411 147.24538 190.24 145.8 C 188.94414 144.75334 187.24331 144.23 185.15 144.23 z " />
</svg>
