<svg
   xmlns="http://www.w3.org/2000/svg" 
   width="16px"
   height="16px"
   viewBox="0,0,256,256"
   fill="currentColor">
  <path
     d="M 61.44 0 C 55.840017 0 51.2 4.6400168 51.2 10.24 L 51.2 20.48 L 20.48 20.48 C 14.539999 20.48 10.24 24.779999 10.24 30.72 L 10.24 66.56 L 245.76 66.56 L 245.76 30.72 C 245.76 24.779999 241.45999 20.48 235.52 20.48 L 204.8 20.48 L 204.8 10.24 C 204.8 4.6400168 200.15997 0 194.56 0 L 184.32 0 C 178.72003 0 174.08 4.6400168 174.08 10.24 L 174.08 20.48 L 81.92 20.48 L 81.92 10.24 C 81.92 4.6400168 77.279983 0 71.68 0 L 61.44 0 z M 61.44 10.24 L 71.68 10.24 L 71.68 40.96 L 61.44 40.96 L 61.44 10.24 z M 184.32 10.24 L 194.56 10.24 L 194.56 40.96 L 184.32 40.96 L 184.32 10.24 z M 10.24 76.8 L 10.24 235.52 C 10.24 241.43997 14.539999 245.76 20.48 245.76 L 235.52 245.76 C 241.43997 245.76 245.76 241.43997 245.76 235.52 L 245.76 76.8 L 10.24 76.8 z M 19.99 86.79 L 236.01 86.79 L 236.01 236.01 L 19.99 236.01 L 19.99 86.79 z M 31.6 122.98 L 31.6 125.03 C 33.889901 125.10387 35.651182 125.45212 36.87 126.08 C 38.088818 126.70788 39.491843 128.02557 41.08 130.02 L 42.68 132.01 L 42.68 185.03 C 42.68 189.01886 41.875091 191.83798 40.25 193.5 C 38.624909 195.16202 35.736595 196.01307 31.6 196.05 L 31.6 198.1 L 58.25 198.1 L 58.25 196.05 L 56.48 196.05 C 53.931562 196.05 51.65443 195.29429 49.66 193.78 C 47.702504 192.26571 46.73 189.35126 46.73 185.03 L 46.73 137.27 L 97.53 199.82 L 99.41 199.82 L 99.41 137.27 C 99.41 133.72435 99.709058 131.23042 100.3 129.79 C 100.92788 128.31264 101.77892 127.26788 102.85 126.64 C 103.95802 125.97519 106.09369 125.43627 109.27 125.03 L 109.27 122.98 L 84.45 122.98 L 84.45 125.03 C 88.623529 124.95613 91.597174 125.98783 93.37 128.13 C 94.662686 129.71816 95.31 132.76407 95.31 137.27 L 95.31 169.57 L 58.25 122.98 L 31.6 122.98 z M 140.19 144.75 C 132.69242 144.75 126.78126 147.51992 122.46 153.06 C 118.17567 158.56315 116.03 165.02629 116.03 172.45 C 116.03 179.65211 118.13954 185.98379 122.35 191.45 C 126.56046 196.91621 132.55695 199.65 140.35 199.65 C 148.29078 199.65 154.51407 196.66329 159.02 190.68 C 162.75032 185.73086 164.62 179.57984 164.62 172.23 C 164.62 167.13312 163.60136 162.44433 161.57 158.16 C 159.57557 153.87567 156.63806 150.56683 152.76 148.24 C 148.88194 145.91317 144.69593 144.75 140.19 144.75 z M 169.72 146.3 L 169.72 148.35 C 171.38202 148.6824 172.63052 149.32972 173.48 150.29 C 174.66188 151.58269 176.30477 154.65166 178.41 159.49 L 195.87 199.65 L 198.47 199.65 L 215.75 158.99 C 217.8183 154.11473 219.37585 151.17721 220.41 150.18 C 221.44415 149.18279 222.77491 148.5716 224.4 148.35 L 224.4 146.3 L 207.44 146.3 L 207.44 148.35 C 209.54523 148.42387 211.00745 148.83132 211.82 149.57 C 212.66948 150.27174 213.1 151.19505 213.1 152.34 C 213.1 154.33443 212.1175 157.7386 210.16 162.54 L 203.35 179.32 L 194.81 159.88 C 193.18491 156.11274 192.38 153.54655 192.38 152.18 C 192.38 151.07198 192.82359 150.10255 193.71 149.29 C 194.33788 148.66212 195.51411 148.35 197.25 148.35 L 197.25 146.3 L 169.72 146.3 z M 140.41 148.69 C 141.96122 148.69 143.21972 149.07439 144.18 149.85 C 145.54655 150.92108 146.57826 152.63623 147.28 155 C 147.98174 157.32683 148.33 161.63124 148.33 167.91 C 148.33 178.58389 147.95868 185.67128 147.22 189.18 C 146.73986 191.43297 145.78042 193.19425 144.34 194.45 C 143.23198 195.37335 141.85202 195.83 140.19 195.83 C 138.49104 195.83 136.97962 195.14655 135.65 193.78 C 134.32038 192.41345 133.44627 190.42231 133.04 187.8 C 132.52293 184.36515 132.27 180.67193 132.27 176.72 C 132.27 169.25936 132.47373 163.44353 132.88 159.27 C 133.32321 155.05954 134.20038 152.25349 135.53 150.85 C 136.89655 149.40958 138.52637 148.69 140.41 148.69 z " />
</svg>
