<?xml version="1.0" encoding="UTF-8" standalone="no"?>
<svg
   version="1.1"
   width="50px"
   height="50px"
   viewBox="0,0,256,256"
   id="svg2"
   sodipodi:docname="KalenderWochentagDienstag.svg"
   inkscape:version="1.3.2 (091e20e, 2023-11-25, custom)"
   xmlns:inkscape="http://www.inkscape.org/namespaces/inkscape"
   xmlns:sodipodi="http://sodipodi.sourceforge.net/DTD/sodipodi-0.dtd"
   xmlns="http://www.w3.org/2000/svg"
   xmlns:svg="http://www.w3.org/2000/svg">
  <defs
     id="defs2" />
  <sodipodi:namedview
     id="namedview2"
     pagecolor="#ffffff"
     bordercolor="#000000"
     borderopacity="0.25"
     inkscape:showpageshadow="2"
     inkscape:pageopacity="0.0"
     inkscape:pagecheckerboard="0"
     inkscape:deskcolor="#d1d1d1"
     showgrid="false"
     inkscape:zoom="15.23108"
     inkscape:cx="29.052438"
     inkscape:cy="16.77491"
     inkscape:window-width="2560"
     inkscape:window-height="1494"
     inkscape:window-x="-11"
     inkscape:window-y="-11"
     inkscape:window-maximized="1"
     inkscape:current-layer="svg2" />
  <path
     id="path1"
     style="font-family:none;mix-blend-mode:normal;fill:currentColor;fill-rule:nonzero;stroke:none;stroke-width:5.12;stroke-linecap:butt;stroke-linejoin:miter;stroke-miterlimit:10;stroke-dasharray:none;stroke-dashoffset:0"
     d="M 61.44 0 C 55.840011 0 51.2 4.6400112 51.2 10.24 L 51.2 20.48 L 20.48 20.48 C 14.539993 20.48 10.24 24.779993 10.24 30.72 L 10.24 66.56 L 245.76 66.56 L 245.76 30.72 C 245.76 24.779993 241.46 20.48 235.52 20.48 L 204.8 20.48 L 204.8 10.24 C 204.8 4.6400112 200.15998 0 194.56 0 L 184.32 0 C 178.72002 0 174.08 4.6400112 174.08 10.24 L 174.08 20.48 L 81.92 20.48 L 81.92 10.24 C 81.92 4.6400112 77.279989 0 71.68 0 L 61.44 0 z M 61.44 10.24 L 71.68 10.24 L 71.68 40.96 L 61.44 40.96 L 61.44 10.24 z M 184.32 10.24 L 194.56 10.24 L 194.56 40.96 L 184.32 40.96 L 184.32 10.24 z M 10.24 76.8 L 10.24 235.52 C 10.24 241.43998 14.539993 245.76 20.48 245.76 L 235.52 245.76 C 241.43998 245.76 245.76 241.43998 245.76 235.52 L 245.76 76.8 L 10.24 76.8 z M 183.81 109.4 C 187.04965 109.4 189.78717 110.53732 192.03 112.83 C 194.27283 115.07283 195.4 117.79019 195.4 120.98 C 195.4 124.16981 194.25268 126.88717 191.96 129.13 C 189.71717 131.37283 186.99981 132.5 183.81 132.5 C 180.62019 132.5 177.90283 131.37283 175.66 129.13 C 173.41717 126.88717 172.3 124.16981 172.3 120.98 C 172.3 117.79019 173.41717 115.07283 175.66 112.83 C 177.90283 110.53732 180.62019 109.4 183.81 109.4 z M 53.28 111.79 L 98.66 111.79 C 110.77131 111.79 120.51357 113.43051 127.89 116.72 C 136.91118 120.7571 143.73481 126.86611 148.37 135.04 C 153.05503 143.21389 155.4 152.46296 155.4 162.78 C 155.4 169.90723 154.25268 176.47927 151.96 182.51 C 149.66732 188.49089 146.69838 193.45258 143.06 197.39 C 139.42162 201.27758 135.21471 204.41764 130.43 206.81 C 125.69513 209.15252 119.88803 210.97414 113.01 212.27 C 109.96971 212.86809 105.18914 213.16 98.66 213.16 L 53.28 213.16 L 53.28 210.4 L 56.64 210.4 C 59.580605 210.4 61.824936 209.94713 63.37 209.05 C 64.964905 208.10303 66.132388 206.8349 66.88 205.24 C 67.328567 204.19334 67.56 201.05328 67.56 195.82 L 67.56 129.13 C 67.56 123.94656 67.278248 120.70586 66.73 119.41 C 66.181752 118.11414 65.064586 116.99697 63.37 116.05 C 61.725255 115.05318 59.480924 114.55 56.64 114.55 L 53.28 114.55 L 53.28 111.79 z M 91.93 117.54 L 91.93 196.64 C 91.93 200.82662 92.131274 203.39303 92.53 204.34 C 92.928726 205.28697 93.593025 206.01159 94.54 206.51 C 95.885701 207.25761 97.838121 207.63 100.38 207.63 C 108.70341 207.63 115.05401 204.79185 119.44 199.11 C 125.42089 191.43452 128.41 179.51841 128.41 163.37 C 128.41 150.36156 126.36694 139.97516 122.28 132.2 C 119.04035 126.11943 114.88376 121.98299 109.8 119.79 C 106.21146 118.24494 100.25341 117.49016 91.93 117.54 z M 164.97 143.26 L 194.28 143.26 L 194.28 198.66 C 194.28 203.59424 194.85366 206.76446 196 208.16 C 197.14634 209.5057 199.38067 210.27064 202.72 210.47 L 202.72 213.16 L 164.97 213.16 L 164.97 210.47 C 168.06013 210.37032 170.35478 209.47459 171.85 207.78 C 172.84682 206.63366 173.34 203.59424 173.34 198.66 L 173.34 157.84 C 173.34 152.90576 172.76634 149.7657 171.62 148.42 C 170.47366 147.02446 168.25949 146.22936 164.97 146.03 L 164.97 143.26 z " />
</svg>
