<?xml version="1.0" encoding="UTF-8" standalone="no"?>
<svg
   version="1.1"
   width="50px"
   height="50px"
   viewBox="0,0,256,256"
   id="svg2"
   sodipodi:docname="KalenderWochentagMontag.svg"
   inkscape:version="1.3.2 (091e20e, 2023-11-25, custom)"
   xmlns:inkscape="http://www.inkscape.org/namespaces/inkscape"
   xmlns:sodipodi="http://sodipodi.sourceforge.net/DTD/sodipodi-0.dtd"
   xmlns="http://www.w3.org/2000/svg"
   xmlns:svg="http://www.w3.org/2000/svg">
  <defs
     id="defs2" />
  <sodipodi:namedview
     id="namedview2"
     pagecolor="#ffffff"
     bordercolor="#000000"
     borderopacity="0.25"
     inkscape:showpageshadow="2"
     inkscape:pageopacity="0.0"
     inkscape:pagecheckerboard="0"
     inkscape:deskcolor="#d1d1d1"
     showgrid="false"
     inkscape:zoom="15.23108"
     inkscape:cx="29.052438"
     inkscape:cy="16.77491"
     inkscape:window-width="2560"
     inkscape:window-height="1494"
     inkscape:window-x="-11"
     inkscape:window-y="-11"
     inkscape:window-maximized="1"
     inkscape:current-layer="svg2" />
  <path
     id="path1"
     style="font-family:none;mix-blend-mode:normal;fill:#000000;fill-rule:nonzero;stroke:none;stroke-width:5.12;stroke-linecap:butt;stroke-linejoin:miter;stroke-miterlimit:10;stroke-dasharray:none;stroke-dashoffset:0"
     d="M 61.44 0 C 55.840011 0 51.2 4.6400112 51.2 10.24 L 51.2 20.48 L 20.48 20.48 C 14.539993 20.48 10.24 24.779993 10.24 30.72 L 10.24 66.56 L 245.76 66.56 L 245.76 30.72 C 245.76 24.779993 241.46 20.48 235.52 20.48 L 204.8 20.48 L 204.8 10.24 C 204.8 4.6400112 200.15998 0 194.56 0 L 184.32 0 C 178.72002 0 174.08 4.6400112 174.08 10.24 L 174.08 20.48 L 81.92 20.48 L 81.92 10.24 C 81.92 4.6400112 77.279989 0 71.68 0 L 61.44 0 z M 61.44 10.24 L 71.68 10.24 L 71.68 40.96 L 61.44 40.96 L 61.44 10.24 z M 184.32 10.24 L 194.56 10.24 L 194.56 40.96 L 184.32 40.96 L 184.32 10.24 z M 10.24 76.8 L 10.24 235.52 C 10.24 241.43998 14.539993 245.76 20.48 245.76 L 235.52 245.76 C 241.43998 245.76 245.76 241.43998 245.76 235.52 L 245.76 76.8 L 10.24 76.8 z M 21.73 109.55 L 63.14 109.55 L 91.63 176.38 L 119.14 109.55 L 160.41 109.55 L 160.41 112.31 L 157.12 112.31 C 154.12955 112.31 151.73427 112.83334 149.94 113.88 C 148.69398 114.57777 147.69761 115.75525 146.95 117.4 C 146.40175 118.59618 146.13 121.70608 146.13 126.74 L 146.13 193.58 C 146.13 198.76344 146.40175 202.00414 146.95 203.3 C 147.49825 204.59586 148.62541 205.73318 150.32 206.73 C 152.01459 207.67697 154.27908 208.16 157.12 208.16 L 160.41 208.16 L 160.41 210.92 L 107.48 210.92 L 107.48 208.16 L 110.77 208.16 C 113.76045 208.16 116.14573 207.63666 117.94 206.59 C 119.18602 205.89223 120.19239 204.69459 120.94 203 C 121.48825 201.80382 121.76 198.66376 121.76 193.58 L 121.76 118.44 L 82.88 210.92 L 81.09 210.92 L 41.61 119.11 L 41.61 190.51 C 41.61 195.49408 41.740796 198.56366 41.99 199.71 C 42.63793 202.20204 44.026847 204.2451 46.17 205.84 C 48.362994 207.38506 51.784809 208.16 56.42 208.16 L 56.42 210.92 L 21.73 210.92 L 21.73 208.16 L 22.77 208.16 C 25.012835 208.20984 27.10621 207.85761 29.05 207.11 C 30.99379 206.31255 32.463185 205.26586 33.46 203.97 C 34.456815 202.67414 35.231752 200.85252 35.78 198.51 C 35.879682 197.96175 35.93 195.42551 35.93 190.89 L 35.93 126.74 C 35.93 121.6064 35.658248 118.41602 35.11 117.17 C 34.561752 115.87414 33.434586 114.75697 31.74 113.81 C 30.045414 112.81318 27.780924 112.31 24.94 112.31 L 21.73 112.31 L 21.73 109.55 z M 201.3 138.93 C 207.38057 138.93 213.03672 140.50003 218.27 143.64 C 223.50328 146.77997 227.4686 151.23847 230.16 157.02 C 232.90124 162.80153 234.27 169.13197 234.27 176.01 C 234.27 185.92831 231.75392 194.22134 226.72 200.9 C 220.63943 208.9742 212.24577 213.01 201.53 213.01 C 191.0136 213.01 182.91185 209.32643 177.23 201.95 C 171.54815 194.57357 168.71 186.02895 168.71 176.31 C 168.71 166.29201 171.59847 157.56627 177.38 150.14 C 183.21137 142.66388 191.18232 138.93 201.3 138.93 z M 201.6 144.23 C 199.05812 144.23 196.86411 145.20621 195.02 147.15 C 193.22573 149.04395 192.02809 152.82815 191.43 158.51 C 190.88175 164.14201 190.61 171.99216 190.61 182.06 C 190.61 187.39296 190.96223 192.38481 191.66 197.02 C 192.20825 200.55869 193.37573 203.24589 195.17 205.09 C 196.96427 206.93411 199.00732 207.86 201.3 207.86 C 203.54283 207.86 205.41478 207.23602 206.91 205.99 C 208.85379 204.29541 210.15207 201.92029 210.8 198.88 C 211.79682 194.14513 212.29 184.58398 212.29 170.18 C 212.29 161.70707 211.81697 155.89997 210.87 152.76 C 209.92303 149.57019 208.53411 147.24538 206.69 145.8 C 205.39414 144.75334 203.69331 144.23 201.6 144.23 z " />
</svg>
