<svg
   xmlns="http://www.w3.org/2000/svg" 
   width="16px"
   height="16px"
   viewBox="0,0,256,256"
   fill="currentColor">
  <path
     d="M 61.44 0 C 55.840011 0 51.2 4.6400112 51.2 10.24 L 51.2 20.48 L 20.48 20.48 C 14.539993 20.48 10.24 24.779993 10.24 30.72 L 10.24 66.56 L 245.76 66.56 L 245.76 30.72 C 245.76 24.779993 241.46 20.48 235.52 20.48 L 204.8 20.48 L 204.8 10.24 C 204.8 4.6400112 200.15998 0 194.56 0 L 184.32 0 C 178.72002 0 174.08 4.6400112 174.08 10.24 L 174.08 20.48 L 81.92 20.48 L 81.92 10.24 C 81.92 4.6400112 77.279989 0 71.68 0 L 61.44 0 z M 61.44 10.24 L 71.68 10.24 L 71.68 40.96 L 61.44 40.96 L 61.44 10.24 z M 184.32 10.24 L 194.56 10.24 L 194.56 40.96 L 184.32 40.96 L 184.32 10.24 z M 10.24 76.8 L 10.24 235.52 C 10.24 241.43998 14.539993 245.76 20.48 245.76 L 235.52 245.76 C 241.43998 245.76 245.76 241.43998 245.76 235.52 L 245.76 76.8 L 10.24 76.8 z M 85.24 108.24 C 88.529491 108.24 91.719872 108.63255 94.81 109.43 C 97.152516 110.02809 99.990669 111.15525 103.33 112.8 C 106.71917 114.3949 109.0843 115.19 110.43 115.19 C 111.72586 115.19 112.75239 114.78745 113.5 113.99 C 114.24761 113.19255 114.94207 111.28029 115.59 108.24 L 117.83 108.24 L 118.65 142.03 L 115.59 142.03 C 114.14462 133.55707 110.58185 126.7536 104.9 121.62 C 99.267993 116.43656 93.158981 113.84 86.58 113.84 C 81.496242 113.84 77.460446 115.21876 74.47 117.96 C 71.529395 120.6514 70.06 123.76131 70.06 127.3 C 70.06 129.54283 70.583344 131.53557 71.63 133.28 C 73.075382 135.62252 75.390191 137.93732 78.58 140.23 C 80.922516 141.87475 86.337069 144.79338 94.81 148.98 C 106.6721 154.81137 114.66322 160.31656 118.8 165.5 C 122.88694 170.68344 124.93 176.62134 124.93 183.3 C 124.93 191.77293 121.61882 199.06959 114.99 205.2 C 108.41102 211.28057 100.03752 214.32 89.87 214.32 C 86.680191 214.32 83.670924 213.99793 80.83 213.35 C 77.989076 212.70207 74.416306 211.48427 70.13 209.69 C 67.737643 208.69318 65.775064 208.19 64.23 208.19 C 62.93414 208.19 61.565382 208.69318 60.12 209.69 C 58.674618 210.68682 57.497134 212.20653 56.6 214.25 L 53.84 214.25 L 53.84 175.97 L 56.6 175.97 C 58.792994 186.73561 63.009904 194.95815 69.24 200.64 C 75.519937 206.27201 82.273089 209.09 89.5 209.09 C 95.082166 209.09 99.520509 207.57029 102.81 204.53 C 106.14933 201.48971 107.81 197.9471 107.81 193.91 C 107.81 191.51764 107.16586 189.20283 105.87 186.96 C 104.62398 184.71717 102.70172 182.60363 100.11 180.61 C 97.51828 178.56653 92.938981 175.91965 86.36 172.68 C 77.139458 168.14449 70.507102 164.27981 66.47 161.09 C 62.432898 157.90019 59.322994 154.33742 57.13 150.4 C 54.986847 146.46258 53.91 142.12487 53.91 137.39 C 53.91 129.3158 56.878949 122.44185 62.81 116.76 C 68.741051 111.07815 76.218821 108.24 85.24 108.24 z M 169.19 139.94 C 175.27057 139.94 180.92672 141.51003 186.16 144.65 C 191.39328 147.78997 195.3586 152.24847 198.05 158.03 C 200.79124 163.81153 202.16 170.14197 202.16 177.02 C 202.16 186.93831 199.64392 195.23134 194.61 201.91 C 188.52943 209.9842 180.13577 214.02 169.42 214.02 C 158.9036 214.02 150.80185 210.33643 145.12 202.96 C 139.43815 195.58357 136.6 187.03895 136.6 177.32 C 136.6 167.30201 139.48847 158.57627 145.27 151.15 C 151.10137 143.67388 159.07232 139.94 169.19 139.94 z M 169.49 145.24 C 166.94812 145.24 164.75411 146.21621 162.91 148.16 C 161.11573 150.05395 159.91809 153.83815 159.32 159.52 C 158.77175 165.15201 158.5 173.00216 158.5 183.07 C 158.5 188.40296 158.85223 193.39481 159.55 198.03 C 160.09825 201.56869 161.26573 204.25589 163.06 206.1 C 164.85427 207.94411 166.89732 208.87 169.19 208.87 C 171.43283 208.87 173.30478 208.24602 174.8 207 C 176.74379 205.30541 178.04207 202.93029 178.69 199.89 C 179.68682 195.15513 180.18 185.59398 180.18 171.19 C 180.18 162.71707 179.70697 156.90997 178.76 153.77 C 177.81303 150.58019 176.42411 148.25538 174.58 146.81 C 173.28414 145.76334 171.58331 145.24 169.49 145.24 z " />
</svg>
