<?xml version="1.0" encoding="UTF-8" standalone="no"?>
<svg
   version="1.1"
   width="50px"
   height="50px"
   viewBox="0,0,256,256"
   id="svg2"
   sodipodi:docname="KalenderWochentagSamstag.svg"
   inkscape:version="1.3.2 (091e20e, 2023-11-25, custom)"
   xmlns:inkscape="http://www.inkscape.org/namespaces/inkscape"
   xmlns:sodipodi="http://sodipodi.sourceforge.net/DTD/sodipodi-0.dtd"
   xmlns="http://www.w3.org/2000/svg"
   xmlns:svg="http://www.w3.org/2000/svg">
  <defs
     id="defs2" />
  <sodipodi:namedview
     id="namedview2"
     pagecolor="#ffffff"
     bordercolor="#000000"
     borderopacity="0.25"
     inkscape:showpageshadow="2"
     inkscape:pageopacity="0.0"
     inkscape:pagecheckerboard="0"
     inkscape:deskcolor="#d1d1d1"
     showgrid="false"
     inkscape:zoom="15.23108"
     inkscape:cx="29.052438"
     inkscape:cy="16.77491"
     inkscape:window-width="2560"
     inkscape:window-height="1494"
     inkscape:window-x="-11"
     inkscape:window-y="-11"
     inkscape:window-maximized="1"
     inkscape:current-layer="svg2" />
  <path
     id="path1"
     style="font-family:none;mix-blend-mode:normal;fill:#000000;fill-rule:nonzero;stroke:none;stroke-width:5.12;stroke-linecap:butt;stroke-linejoin:miter;stroke-miterlimit:10;stroke-dasharray:none;stroke-dashoffset:0"
     d="M 61.44 0 C 55.840011 0 51.2 4.6400112 51.2 10.24 L 51.2 20.48 L 20.48 20.48 C 14.539993 20.48 10.24 24.779993 10.24 30.72 L 10.24 66.56 L 245.76 66.56 L 245.76 30.72 C 245.76 24.779993 241.46 20.48 235.52 20.48 L 204.8 20.48 L 204.8 10.24 C 204.8 4.6400112 200.15998 0 194.56 0 L 184.32 0 C 178.72002 0 174.08 4.6400112 174.08 10.24 L 174.08 20.48 L 81.92 20.48 L 81.92 10.24 C 81.92 4.6400112 77.279989 0 71.68 0 L 61.44 0 z M 61.44 10.24 L 71.68 10.24 L 71.68 40.96 L 61.44 40.96 L 61.44 10.24 z M 184.32 10.24 L 194.56 10.24 L 194.56 40.96 L 184.32 40.96 L 184.32 10.24 z M 10.24 76.8 L 10.24 235.52 C 10.24 241.43998 14.539993 245.76 20.48 245.76 L 235.52 245.76 C 241.43998 245.76 245.76 241.43998 245.76 235.52 L 245.76 76.8 L 10.24 76.8 z M 83.78 108.24 C 87.069491 108.24 90.259872 108.63255 93.35 109.43 C 95.692516 110.02809 98.530669 111.15525 101.87 112.8 C 105.25917 114.3949 107.6243 115.19 108.97 115.19 C 110.26586 115.19 111.29239 114.78745 112.04 113.99 C 112.78761 113.19255 113.48207 111.28029 114.13 108.24 L 116.37 108.24 L 117.2 142.03 L 114.13 142.03 C 112.68462 133.55707 109.12185 126.7536 103.44 121.62 C 97.807993 116.43656 91.698981 113.84 85.12 113.84 C 80.036242 113.84 76.000446 115.21876 73.01 117.96 C 70.069395 120.6514 68.6 123.76131 68.6 127.3 C 68.6 129.54283 69.123344 131.53557 70.17 133.28 C 71.615382 135.62252 73.930191 137.93732 77.12 140.23 C 79.462516 141.87475 84.877069 144.79338 93.35 148.98 C 105.2121 154.81137 113.21322 160.31656 117.35 165.5 C 121.43694 170.68344 123.48 176.62134 123.48 183.3 C 123.48 191.77293 120.15882 199.06959 113.53 205.2 C 106.95102 211.28057 98.577517 214.32 88.41 214.32 C 85.220191 214.32 82.210924 213.99793 79.37 213.35 C 76.529076 212.70207 72.966306 211.48427 68.68 209.69 C 66.287643 208.69318 64.315064 208.19 62.77 208.19 C 61.47414 208.19 60.105382 208.69318 58.66 209.69 C 57.214618 210.68682 56.047134 212.20653 55.15 214.25 L 52.38 214.25 L 52.38 175.97 L 55.15 175.97 C 57.342994 186.73561 61.549904 194.95815 67.78 200.64 C 74.059937 206.27201 80.813089 209.09 88.04 209.09 C 93.622166 209.09 98.060509 207.57029 101.35 204.53 C 104.68933 201.48971 106.36 197.9471 106.36 193.91 C 106.36 191.51764 105.70586 189.20283 104.41 186.96 C 103.16398 184.71717 101.25172 182.60363 98.66 180.61 C 96.06828 178.56653 91.478981 175.91965 84.9 172.68 C 75.679458 168.14449 69.047102 164.27981 65.01 161.09 C 60.972898 157.90019 57.862994 154.33742 55.67 150.4 C 53.526847 146.46258 52.45 142.12487 52.45 137.39 C 52.45 129.3158 55.418949 122.44185 61.35 116.76 C 67.281051 111.07815 74.758821 108.24 83.78 108.24 z M 169.9 139.94 C 176.52882 139.94 181.76226 141.35908 185.6 144.2 C 189.48758 146.99108 192.00366 150.03051 193.15 153.32 C 193.84777 155.41331 194.2 160.22404 194.2 167.75 L 194.2 194.89 C 194.2 198.07981 194.3208 200.09271 194.57 200.94 C 194.8192 201.73745 195.20159 202.34127 195.7 202.74 C 196.19841 203.13873 196.77207 203.33 197.42 203.33 C 198.71586 203.33 200.0343 202.41411 201.38 200.57 L 203.62 202.36 C 201.12796 206.04822 198.5414 208.74541 195.85 210.44 C 193.20844 212.08475 190.18917 212.9 186.8 212.9 C 182.81274 212.9 179.69283 211.98411 177.45 210.14 C 175.20717 208.24605 173.83841 205.3979 173.34 201.61 C 164.81723 209.13596 157.16834 212.9 150.39 212.9 C 146.40274 212.9 143.09156 211.61172 140.45 209.02 C 137.80844 206.37844 136.49 203.08742 136.49 199.15 C 136.49 193.81704 138.77465 189.02647 143.36 184.79 C 147.94535 180.50369 157.9392 174.82739 173.34 167.75 L 173.34 160.72 C 173.34 155.43688 173.04809 152.1257 172.45 150.78 C 171.90175 149.38446 170.8249 148.18682 169.23 147.19 C 167.6351 146.14334 165.84363 145.62 163.85 145.62 C 160.61035 145.62 157.94331 146.34462 155.85 147.79 C 154.55414 148.68713 153.9 149.73382 153.9 150.93 C 153.9 151.97666 154.60446 153.26494 156 154.81 C 157.89395 156.95315 158.84 159.02637 158.84 161.02 C 158.84 163.4622 157.91411 165.55557 156.07 167.3 C 154.27573 168.99459 151.91061 169.84 148.97 169.84 C 145.83003 169.84 143.19315 168.89395 141.05 167 C 138.95669 165.10605 137.91 162.89188 137.91 160.35 C 137.91 156.76146 139.32908 153.33965 142.17 150.1 C 145.01092 146.81051 148.96624 144.29443 154.05 142.55 C 159.13376 140.80557 164.41752 139.94 169.9 139.94 z M 173.34 172.76 C 167.30927 176.29869 162.83061 180.0829 159.89 184.12 C 157.94621 186.8114 156.97 189.52876 156.97 192.27 C 156.97 194.56268 157.79525 196.57557 159.44 198.32 C 160.68602 199.6657 162.42717 200.34 164.67 200.34 C 167.16204 200.34 170.05051 198.95108 173.34 196.16 L 173.34 172.76 z " />
</svg>
