<svg version="1.1" xmlns="http://www.w3.org/2000/svg" xmlns:xlink="http://www.w3.org/1999/xlink" width="50px" height="50px" viewBox="0,0,256,256"><g transform="scale(5.12,5.12)"><path d="M13,6.99805c-0.21,0 -0.41961,0.06617 -0.59961,0.20117l-12,9c-0.44,0.33 -0.53117,0.96039 -0.20117,1.40039c0.33,0.44 0.96039,0.53117 1.40039,0.20117l0.40039,-0.30078v14.5c0,0.55 0.45,1 1,1h5v-5.16992c-0.55,-0.2 -1.04039,-0.5493 -1.40039,-1.0293c-0.48,-0.64 -0.68031,-1.4307 -0.57031,-2.2207c0.11,-0.8 0.52992,-1.50047 1.16992,-1.98047l13.4707,-10.09961l-7.07031,-5.30078c-0.18,-0.135 -0.38961,-0.20117 -0.59961,-0.20117zM37,6.99805c-0.21,0 -0.41961,0.06617 -0.59961,0.20117l-7.07031,5.30078l13.4707,10.09961c0.64,0.48 1.05992,1.18047 1.16992,1.98047c0.11,0.79 -0.09031,1.5807 -0.57031,2.2207c-0.36,0.48 -0.85039,0.8293 -1.40039,1.0293v5.16992h5c0.55,0 1,-0.45 1,-1v-14.5l0.40039,0.30078c0.44,0.33 1.07039,0.23883 1.40039,-0.20117c0.33,-0.44 0.23883,-1.07039 -0.20117,-1.40039l-12,-9c-0.18,-0.135 -0.38961,-0.20117 -0.59961,-0.20117zM25,11.99805c-0.21,0 -0.41961,0.06617 -0.59961,0.20117l-16,12c-0.44,0.33 -0.53117,0.96039 -0.20117,1.40039c0.33,0.44 0.96039,0.53117 1.40039,0.20117l0.40039,-0.30078v15.5c0,0.55 0.45,1 1,1h16v-13h7v13h5c0.55,0 1,-0.45 1,-1v-15.5l0.40039,0.30078c0.18,0.14 0.38961,0.19922 0.59961,0.19922c0.3,0 0.60078,-0.14039 0.80078,-0.40039c0.33,-0.44 0.23883,-1.07039 -0.20117,-1.40039l-16,-12c-0.18,-0.135 -0.38961,-0.20117 -0.59961,-0.20117zM16,29h6v6h-6z"></path></g></svg>