<?xml version="1.0" encoding="UTF-8" standalone="no"?>
<svg
   version="1.1"
   width="50"
   height="50"
   viewBox="0 0 256 256"
   id="svg1"
   xmlns="http://www.w3.org/2000/svg"
   xmlns:svg="http://www.w3.org/2000/svg">
  <defs
     id="defs1" />
  <path
     d="m 132.87014,1 c -10.46138,0 -19.28679,8.82541 -19.28679,19.28678 0,8.782373 6.28545,16.380869 14.46509,18.597966 -6.60832,0.08613 -12.70002,4.606455 -14.46509,11.709831 l -10.50441,34.096272 c -2.75525,8.265762 1.09781,17.112721 8.26577,21.525421 l 19.80339,12.22644 -7.57695,18.08136 c -0.55965,0.55964 -1.78662,4.36967 -0.68882,8.78237 1.09781,2.19561 2.7983,4.41271 4.99391,5.51051 1.0978,0.55964 2.86287,1.20542 3.96067,1.20542 4.41271,0 8.1366,-3.33645 10.33221,-7.74915 l 7.74915,-19.28678 c 3.3149,-8.26576 1.14083,-17.56474 -6.02712,-23.07525 l -10.50441,-7.749154 5.51051,-17.73695 16.35932,4.993898 -1.37762,4.993899 c -0.55965,3.314901 -1.16239,6.091701 -1.72203,7.749153 9.9232,8.825414 13.25966,22.515604 7.74914,34.096274 l -7.74914,19.28678 v 1.20542 c -4.41272,8.82541 -12.05425,13.77627 -20.32001,13.77627 -2.75525,0 -5.51051,-0.62423 -8.26576,-1.72203 -4.95086,-2.19561 -8.82541,-6.58677 -11.02102,-11.53763 -2.75525,-7.70611 -0.58119,-14.85253 0.51661,-17.04813 l 3.78848,-9.4712 -11.53763,-7.06033 C 98.149634,111.27475 93.198774,103.50406 91.541324,94.678646 h -4.993902 c -24.23764,0 -39.09017,14.400504 -39.09017,37.540344 0,13.77626 4.434252,20.38458 7.749153,24.79728 1.657451,2.75526 2.755255,3.85306 2.755255,5.51051 0,4.41271 -4.950861,10.37524 -11.021018,18.08136 -2.755254,3.3149 -5.510508,6.65134 -8.265762,10.5044 -0.559648,1.0978 -1.205424,2.17407 -1.205424,3.27187 v 54.58847 c 0,3.31491 2.195607,5.51052 5.510508,5.51052 H 58.99488 c 3.314902,0 5.510508,-2.19561 5.510508,-5.51052 v -44.60067 c 8.265764,-4.95086 29.834226,-19.28678 34.785086,-38.57356 10.461366,3.85305 31.857626,10.43982 59.410176,11.53763 -2.19561,23.69948 -6.54373,54.02882 -6.54373,54.58847 0,1.0978 -0.0431,2.69067 0.5166,3.78847 1.09781,2.19561 4.9939,8.82542 4.9939,13.77628 0,3.3149 2.19561,5.5105 5.51051,5.5105 h 16.53153 c 3.31489,0 5.5105,-2.1956 5.5105,-5.5105 0,-6.60831 -3.33645,-13.7117 -4.9939,-17.56475 1.65745,-8.26576 7.74915,-38.09999 10.50441,-62.33763 4.95087,-3.85305 16.01492,-14.29288 16.01492,-30.8244 0,-3.3149 0.0431,-7.16797 -0.51662,-11.02103 -0.55964,-11.58066 -1.14083,-28.69338 3.27187,-35.301689 6.60831,1.657451 13.66866,1.097804 18.08136,0 4.95086,1.657451 14.42204,3.960678 14.9817,3.960678 h 1.54983 c 1.65744,0 2.86287,-0.624229 3.96067,-1.722033 6.07015,-6.608313 6.07015,-17.155756 0,-23.764069 L 238.0864,59.89356 c -2.1956,-3.853057 -8.73933,-15.971879 -23.07525,-19.28678 1.0978,-4.950861 0.45202,-10.891851 -3.96068,-15.842712 -2.19561,-2.195607 -5.38134,-2.195607 -7.57695,0 -1.65745,1.097804 -1.72203,3.164244 -1.72203,4.821695 -20.38458,4.950862 -32.43882,18.770171 -39.60678,32.546441 l -0.17221,0.172204 -17.56475,-5.166103 c 1.09781,-7.706115 -3.8315,-15.369138 -11.53761,-17.564745 10.46136,0 19.28678,-8.82541 19.28678,-19.28678 C 152.15692,9.82541 143.3315,1 132.87014,1 Z M 42.463354,105.69966 c -18.727133,0 -39.0901703,18.72714 -39.0901703,49.59458 0,3.3149 2.195607,5.51051 5.510509,5.51051 H 25.415218 c 3.314902,0 5.510509,-2.19561 5.510509,-5.51051 0,-0.55964 -0.04304,-9.42815 6.027119,-15.4983 -0.559647,-2.19561 -0.51661,-4.8217 -0.51661,-7.57695 0,-9.92322 2.819837,-18.81321 7.232542,-26.51933 z m 160.321356,67.15932 c -0.55964,0.55966 -0.96864,1.679 -2.06644,2.23865 -2.75526,20.94423 -7.27558,44.08407 -9.47119,55.10509 1.09781,2.1956 1.65745,4.47728 2.75526,7.23253 h 0.5166 c 1.65745,0 2.86288,-1.14083 3.96068,-2.23863 l 13.77627,-19.28678 c 1.09781,-1.65745 1.07627,-3.33645 0.51661,-4.9939 -0.55964,-0.55965 -6.67289,-17.11273 -9.98779,-38.05696 z m -96.4339,6.71593 c -4.95086,9.36358 -12.635426,17.00511 -19.803388,23.07526 l 17.736948,48.04475 c 0.55965,2.19561 2.62609,3.78848 4.82169,3.78848 h 16.01491 c 1.65746,0 3.37949,-1.14085 4.4773,-2.23865 1.0978,-1.0978 1.07626,-3.33645 0.5166,-4.9939 l -16.01491,-47.35593 c 1.65745,-3.3149 4.36967,-8.82541 6.02712,-16.53152 -4.95086,-1.09782 -9.92321,-2.13103 -13.77627,-3.78849 z"
     id="path1"
     style="stroke-width:5.51051" />
</svg>
