<svg version="1.1" xmlns="http://www.w3.org/2000/svg" xmlns:xlink="http://www.w3.org/1999/xlink" width="50px" height="50px" viewBox="0,0,256,256"><g transform="scale(5.12,5.12)"><path d="M22.20703,6c-0.583,0.009 -1.14489,0.14106 -1.71289,0.41406l-11.83398,5.90039c-1.052,0.525 -1.65916,1.58455 -1.66016,2.68555c0,0.451 0.10045,0.90884 0.31445,1.33984c0.525,1.052 1.58455,1.65916 2.68555,1.66016c0.451,0 0.90884,-0.09945 1.33984,-0.31445l10.19531,-5.08594l3.20703,5.10156l-14.66211,8.75977c0.191,0.119 0.37502,0.25197 0.54102,0.41797c0.021,0.017 1.23091,1.12109 3.37891,1.12109c2.15,0 3.36111,-1.10534 3.41211,-1.15234l0.31055,-0.24805c1.177,-0.886 2.83744,-0.7817 3.89844,0.2793c0.021,0.017 1.23091,1.12109 3.37891,1.12109c2.15,0 3.36111,-1.10534 3.41211,-1.15234l0.31836,-0.25195c1.188,-0.882 2.83167,-0.7718 3.88867,0.2832c0.012,0.011 0.42316,0.37164 1.16016,0.68164l0.87109,-1.875c0.226,-0.526 0.34461,-1.08611 0.34961,-1.66211c0.006,-0.826 -0.22316,-1.63322 -0.66016,-2.32422l-8.7207,-13.87891c-0.743,-1.142 -1.99256,-1.82031 -3.35156,-1.82031zM40,12c-2.757,0 -5,2.24205 -5,4.99805c0,2.758 2.243,5.00195 5,5.00195c2.757,0 5,-2.24395 5,-5.00195c0,-2.756 -2.243,-4.99805 -5,-4.99805zM30.53711,27.98438c-0.08008,-0.00176 -0.16008,0.00611 -0.23828,0.02344c-0.00261,0.00064 -0.00521,0.00129 -0.00781,0.00195c-0.22699,0.04688 -0.43066,0.17115 -0.57617,0.35156c-0.19767,0.18964 -1.79326,1.63867 -4.71484,1.63867c-2.85832,0 -4.43446,-1.37752 -4.68945,-1.61719c-0.19386,-0.25627 -0.49906,-0.40378 -0.82031,-0.39648c-0.06434,0.00099 -0.12844,0.00818 -0.19141,0.02148c-0.00261,0.00064 -0.00521,0.00129 -0.00781,0.00195c-0.22699,0.04688 -0.43066,0.17115 -0.57617,0.35156c-0.19767,0.18964 -1.79326,1.63867 -4.71484,1.63867c-2.91353,0 -4.50581,-1.44043 -4.71094,-1.63672c-0.19456,-0.24189 -0.49042,-0.37972 -0.80078,-0.37305c-0.0026,-0.00001 -0.00521,-0.00001 -0.00781,0c-0.00977,0.00051 -0.01954,0.00116 -0.0293,0.00195c-0.28707,0.01157 -0.5553,0.14604 -0.73633,0.36914c-0.19767,0.18964 -1.79326,1.63867 -4.71484,1.63867c-0.36064,-0.0051 -0.69608,0.18438 -0.87789,0.49587c-0.18181,0.3115 -0.18181,0.69676 0,1.00825c0.18181,0.3115 0.51725,0.50097 0.87789,0.49587c2.64516,0 4.54364,-1.05601 5.5,-1.73437c0.95636,0.67836 2.85484,1.73438 5.5,1.73438c2.64516,0 4.54363,-1.05601 5.5,-1.73437c0.95637,0.67836 2.85484,1.73438 5.5,1.73438c2.64516,0 4.54363,-1.05601 5.5,-1.73437c0.95637,0.67836 2.85484,1.73438 5.5,1.73438c2.64516,0 4.54364,-1.05601 5.5,-1.73437c0.95636,0.67836 2.85484,1.73438 5.5,1.73438c0.36064,0.0051 0.69608,-0.18438 0.87789,-0.49587c0.18181,-0.3115 0.18181,-0.69676 0,-1.00825c-0.18181,-0.3115 -0.51725,-0.50097 -0.87789,-0.49587c-2.85832,0 -4.43446,-1.37752 -4.68945,-1.61719c-0.23511,-0.3118 -0.63019,-0.45824 -1.01172,-0.375c-0.00261,0.00064 -0.00521,0.00129 -0.00781,0.00195c-0.22699,0.04688 -0.43066,0.17115 -0.57617,0.35156c-0.19767,0.18964 -1.79326,1.63867 -4.71484,1.63867c-2.85832,0 -4.43446,-1.37752 -4.68945,-1.61719c-0.18351,-0.24387 -0.46833,-0.3906 -0.77344,-0.39844zM30.53711,33.98438c-0.08008,-0.00176 -0.16008,0.00611 -0.23828,0.02344c-0.00261,0.00064 -0.00521,0.00129 -0.00781,0.00195c-0.22699,0.04688 -0.43066,0.17115 -0.57617,0.35156c-0.19767,0.18964 -1.79326,1.63867 -4.71484,1.63867c-2.85832,0 -4.43446,-1.37752 -4.68945,-1.61719c-0.19386,-0.25627 -0.49906,-0.40378 -0.82031,-0.39648c-0.06434,0.00099 -0.12844,0.00818 -0.19141,0.02148c-0.00261,0.00064 -0.00521,0.00129 -0.00781,0.00195c-0.22699,0.04688 -0.43066,0.17115 -0.57617,0.35156c-0.19767,0.18964 -1.79326,1.63867 -4.71484,1.63867c-2.91353,0 -4.50581,-1.44043 -4.71094,-1.63672c-0.19456,-0.24189 -0.49042,-0.37972 -0.80078,-0.37305c-0.0026,-0.00001 -0.00521,-0.00001 -0.00781,0c-0.00977,0.00051 -0.01954,0.00116 -0.0293,0.00195c-0.28707,0.01157 -0.5553,0.14604 -0.73633,0.36914c-0.19767,0.18964 -1.79326,1.63867 -4.71484,1.63867c-0.36064,-0.0051 -0.69608,0.18438 -0.87789,0.49587c-0.18181,0.3115 -0.18181,0.69676 0,1.00825c0.18181,0.3115 0.51725,0.50097 0.87789,0.49587c2.64516,0 4.54364,-1.05601 5.5,-1.73437c0.95636,0.67836 2.85484,1.73438 5.5,1.73438c2.64516,0 4.54363,-1.05601 5.5,-1.73437c0.95637,0.67836 2.85484,1.73438 5.5,1.73438c2.64516,0 4.54363,-1.05601 5.5,-1.73437c0.95637,0.67836 2.85484,1.73438 5.5,1.73438c2.64516,0 4.54364,-1.05601 5.5,-1.73437c0.95636,0.67836 2.85484,1.73438 5.5,1.73438c0.36064,0.0051 0.69608,-0.18438 0.87789,-0.49587c0.18181,-0.3115 0.18181,-0.69676 0,-1.00825c-0.18181,-0.3115 -0.51725,-0.50097 -0.87789,-0.49587c-2.85832,0 -4.43446,-1.37752 -4.68945,-1.61719c-0.23511,-0.3118 -0.63019,-0.45824 -1.01172,-0.375c-0.00261,0.00064 -0.00521,0.00129 -0.00781,0.00195c-0.22699,0.04688 -0.43066,0.17115 -0.57617,0.35156c-0.19767,0.18964 -1.79326,1.63867 -4.71484,1.63867c-2.85832,0 -4.43446,-1.37752 -4.68945,-1.61719c-0.18351,-0.24387 -0.46833,-0.3906 -0.77344,-0.39844zM30.53711,39.98438c-0.08008,-0.00176 -0.16008,0.00611 -0.23828,0.02344c-0.00261,0.00064 -0.00521,0.00129 -0.00781,0.00195c-0.22699,0.04688 -0.43066,0.17115 -0.57617,0.35156c-0.19767,0.18964 -1.79326,1.63867 -4.71484,1.63867c-2.85832,0 -4.43446,-1.37752 -4.68945,-1.61719c-0.19386,-0.25627 -0.49906,-0.40378 -0.82031,-0.39648c-0.06434,0.00099 -0.12844,0.00818 -0.19141,0.02148c-0.00261,0.00064 -0.00521,0.00129 -0.00781,0.00195c-0.22699,0.04688 -0.43066,0.17115 -0.57617,0.35156c-0.19767,0.18964 -1.79326,1.63867 -4.71484,1.63867c-2.91353,0 -4.50581,-1.44043 -4.71094,-1.63672c-0.19456,-0.24189 -0.49042,-0.37972 -0.80078,-0.37305c-0.0026,-0.00001 -0.00521,-0.00001 -0.00781,0c-0.00977,0.00051 -0.01954,0.00116 -0.0293,0.00195c-0.28707,0.01157 -0.5553,0.14604 -0.73633,0.36914c-0.19767,0.18964 -1.79326,1.63867 -4.71484,1.63867c-0.36064,-0.0051 -0.69608,0.18438 -0.87789,0.49587c-0.18181,0.3115 -0.18181,0.69676 0,1.00825c0.18181,0.3115 0.51725,0.50097 0.87789,0.49587c2.64516,0 4.54364,-1.05601 5.5,-1.73437c0.95636,0.67836 2.85484,1.73438 5.5,1.73438c2.64516,0 4.54363,-1.05601 5.5,-1.73437c0.95637,0.67836 2.85484,1.73438 5.5,1.73438c2.64516,0 4.54363,-1.05601 5.5,-1.73437c0.95637,0.67836 2.85484,1.73438 5.5,1.73438c2.64516,0 4.54364,-1.05601 5.5,-1.73437c0.95636,0.67836 2.85484,1.73438 5.5,1.73438c0.36064,0.0051 0.69608,-0.18438 0.87789,-0.49587c0.18181,-0.3115 0.18181,-0.69676 0,-1.00825c-0.18181,-0.3115 -0.51725,-0.50097 -0.87789,-0.49587c-2.85832,0 -4.43446,-1.37752 -4.68945,-1.61719c-0.23511,-0.3118 -0.63019,-0.45824 -1.01172,-0.375c-0.00261,0.00064 -0.00521,0.00129 -0.00781,0.00195c-0.22699,0.04688 -0.43066,0.17115 -0.57617,0.35156c-0.19767,0.18964 -1.79326,1.63867 -4.71484,1.63867c-2.85832,0 -4.43446,-1.37752 -4.68945,-1.61719c-0.18351,-0.24387 -0.46833,-0.3906 -0.77344,-0.39844z"></path></g></svg>