<?xml version="1.0" encoding="UTF-8" standalone="no"?><svg version="1.1" width="50" height="50" viewBox="0 0 256 256" id="svg1" xmlns="http://www.w3.org/2000/svg" xmlns:svg="http://www.w3.org/2000/svg"><defs id="defs1" /><path d="m 81.919999,0 c -2.819994,0 -5.12,2.3000064 -5.12,5.12 0,2.8199936 2.300006,5.12 5.12,5.12 22.019991,0 32.939981,1.41998 47.520001,7.04 -24.98002,28.039988 -56.039988,68.459981 -59.200001,167.84 0,0.12001 0,0.19999 0,0.32 -0.07997,2.78 -2.360013,4.96 -5.12,4.96 -0.06,0 -0.1,0 -0.16,0 -0.920013,-0.04 -1.820006,-0.34002 -2.56,-0.8 -0.02002,0.12001 0,0.19999 0,0.32 0,5.08002 8.839987,9.92 18.24,9.92 2.819993,0 5.12,2.27999 5.12,5.12 0,2.84002 -2.300007,5.12 -5.12,5.12 -13.720013,0 -28.48,-7.71999 -28.48,-20.16 0,-5.69999 3.740006,-10.31997 8.16,-13.76 0.16,-3.04 0.280013,-6.04001 0.48,-8.96 -12.579994,6.49999 -19.84,14.64002 -19.84,22.72 0,17.56001 34.979994,36.32001 87.040001,36.32001 52.06,0 87.03999,-18.76 87.03999,-36.32001 0,-12.18002 -16.23997,-23.86002 -40.95999,-30.56 -0.0601,2.72 -0.13998,5.53999 -0.16,8.32 11.65997,3.71998 25.62001,10.56 25.76,22.24 0.06,3.9 -1.63999,7.54002 -4.96,10.88 -12.19999,12.35999 -46.58002,18.88 -66.72,18.88 -2.81999,0 -5.12,-2.27999 -5.12,-5.12 0,-2.84001 2.30001,-5.12 5.12,-5.12 20.24002,0 50.68001,-6.87999 59.51999,-15.84 1.31999,-1.34001 1.94002,-2.47997 1.92001,-3.52 -0.06,-4.18002 -6.94001,-8.39997 -15.36,-11.52 0.06,3.71998 0.02,7.38002 0.16,11.2 0.1,2.82 -2.14001,5.18001 -4.96,5.28 -0.06,0.0201 -0.10001,0 -0.16,0 -2.68002,0 -4.96001,-2.10002 -5.12,-4.8 0.02,-0.10001 0.15999,-0.19998 0.15999,-0.32 0,-0.39997 -0.06,-0.73999 -0.15999,-1.12 C 160.96,97.859994 182.64003,37.539994 197.59999,19.680001 215.42001,12.060006 226.01999,10.24 250.88,10.24 253.72001,10.24 256,7.9399936 256,5.12 256,2.3000064 253.72001,0 250.88,0 Z M 173.92,10.24 c 1.30002,-0.180019 2.71999,0.120013 3.84,0.96 2.26002,1.699993 2.65999,4.939981 0.96,7.2 -30.14001,40.080026 -41.60001,86.26002 -44.16,176.32 -0.08,2.78 -2.36002,4.96001 -5.12,4.96001 h -0.16 c -2.81999,-0.0799 -5.03998,-2.46002 -4.96,-5.28001 2.62001,-92.48 14.68001,-140.079974 46.23999,-182.08 0.83999,-1.12 2.05999,-1.89998 3.36001,-2.08 z m -23.68,1.6 c 1.30002,-0.07998 2.62,0.340019 3.67999,1.28 2.11999,1.859993 2.34001,5.080012 0.48,7.2 -33.78001,38.599987 -50.01998,90.94001 -52.79999,169.76 -0.1,2.75999 -2.379983,4.96 -5.120001,4.96 -0.06,0 -0.1,0 -0.16,0 -2.819994,-0.10001 -5.059994,-2.46 -4.96,-5.28 2.88,-81.34001 19.920031,-135.65998 55.360001,-176.16 0.93998,-1.059993 2.21998,-1.679975 3.52,-1.76 z m 24.96,125.6 c -0.28001,3.74001 -0.45998,7.45999 -0.64,11.36001 31.28003,7.92002 50.72,23.33997 50.72,41.11999 0,26.14 -42.74002,46.56 -97.28,46.56 -54.539982,0 -97.28,-20.44001 -97.28,-46.56 0,-13.66001 11.239987,-25.76 31.199999,-34.4 0.48,-4.87997 0.980019,-9.67997 1.6,-14.24 C 24,152.06001 0,171.90001 0,194.56 0,229.02 56.220006,256 128,256 c 71.77999,0 128,-26.98 128,-61.44 0,-26.05998 -31.90001,-48.07997 -80.8,-57.12 z" id="path1" style="stroke-width:5.12" /></svg>
